<?xml version="1.0" encoding="UTF-8"?>
<svg version="1.1" viewBox="0 0 1000 1000" xmlns="http://www.w3.org/2000/svg" xmlns:cc="http://creativecommons.org/ns#" xmlns:dc="http://purl.org/dc/elements/1.1/" xmlns:rdf="http://www.w3.org/1999/02/22-rdf-syntax-ns#" xmlns:xlink="http://www.w3.org/1999/xlink">
 <title>JOSM Logotype 2019</title>
 <defs>
  <linearGradient id="linearGradient9147">
   <stop stop-color="#ffd555" offset="0"/>
   <stop stop-color="#ffcb27" offset="1"/>
  </linearGradient>
  <linearGradient id="linearGradient3892" x1="716.07" x2="787.83" y1="454.99" y2="219.39" gradientTransform="matrix(.98704 .23824 -.9468 1.3017 230.53 -134.51)" gradientUnits="userSpaceOnUse">
   <stop offset="0"/>
   <stop stop-color="#3c3c3c" stop-opacity="0" offset="1"/>
  </linearGradient>
  <filter id="filter4005">
   <feGaussianBlur stdDeviation="10"/>
  </filter>
  <linearGradient id="linearGradient4017" x1="455" x2="532.2" y1="690" y2="656.35" gradientTransform="matrix(1.0062 .23807 -.23807 1.0062 94.828 -143.1)" gradientUnits="userSpaceOnUse">
   <stop stop-opacity=".36869" offset="0"/>
   <stop stop-color="#3c3c3c" stop-opacity="0" offset="1"/>
  </linearGradient>
  <filter id="filter3987" x="-.033087" y="-.30881" width="1.0662" height="1.6176">
   <feGaussianBlur stdDeviation="11.58046"/>
  </filter>
  <filter id="filter4629-1" color-interpolation-filters="sRGB">
   <feGaussianBlur stdDeviation="0.5"/>
  </filter>
  <clipPath id="clipPath3411">
   <path d="m1320 320c15 5 25 20 25 20 10 15 10 40 10 40 5 10 5 30 0 40 0 0 0 25-10 40 0 0-10 15-25 20h540l40-20 20-40v-40l-20-40-40-20z" fill="none" stroke="#000" stroke-width="1px"/>
  </clipPath>
  <clipPath id="clipPath3446">
   <path d="m1320 320-200 80 200 80 60-20v-120z" fill="#dfc4b3"/>
  </clipPath>
  <clipPath>
   <path d="m1478.6-6.6948v326.69h264.09v-326.69z" fill="#fff"/>
  </clipPath>
  <clipPath id="clipPath5203">
   <rect x="80" y="140" width="800" height="800" fill="none" stroke="#515151" stroke-dasharray="8, 8" stroke-width="4" style="paint-order:normal"/>
  </clipPath>
  <clipPath>
   <rect x="80" y="140" width="800" height="800" fill="none" stroke="#515151" stroke-dasharray="8, 8" stroke-width="4" style="paint-order:normal"/>
  </clipPath>
  <clipPath id="clipPath9081">
   <rect transform="matrix(.98233 .18717 0 1 0 0)" x="255.85" y="-55.827" width="427.56" height="1040" fill="#fff" fill-opacity=".17172" style="paint-order:normal"/>
  </clipPath>
  <clipPath id="clipPath9114">
   <path d="m31.923 874.34 200.04 100.23 419.97-80.09 199.44 99.734v-840.06l-199.44-99.73-419.97 80.091-200.04-100.23z" fill="#ff4dcf" fill-opacity=".17172"/>
  </clipPath>
  <clipPath id="clipPath9126">
   <path d="m24.202 100.97 225.77 18.969 9.9354 7.2365 4.9204 812.94-14.817 19.843-225.81 112.71z" fill="none" stroke="#515151" stroke-dasharray="7.37136328, 7.37136328" stroke-width="3.6857" style="paint-order:normal"/>
  </clipPath>
  <clipPath id="clipPath9132">
   <path d="m670.56 120.09 220.5-38.478-6.6071 882.19-213.89-3.6131-16.826-7.4582-3.1965-803.02z" fill="none" stroke="#515151" stroke-dasharray="8.19754535, 8.19754535" stroke-width="4.0988" style="paint-order:normal"/>
  </clipPath>
  <linearGradient id="linearGradient9261" x1="146.47" x2="826.26" y1="211.9" y2="900.62" gradientUnits="userSpaceOnUse" xlink:href="#linearGradient9147"/>
  <linearGradient id="linearGradient9439" x1="1240" x2="1240" y1="480" y2="320" gradientUnits="userSpaceOnUse">
   <stop stop-color="#ad7a4a" offset="0"/>
   <stop stop-color="#edb096" offset="1"/>
  </linearGradient>
  <linearGradient id="linearGradient1085" x1="215.46" x2="280.41" y1="753.18" y2="715.68" gradientTransform="translate(1555.5 -347.95)" gradientUnits="userSpaceOnUse">
   <stop stop-color="#e6b636" offset="0"/>
   <stop stop-color="#f1cf09" offset=".5"/>
   <stop stop-color="#f0d609" offset=".5625"/>
   <stop stop-color="#f0b10a" offset=".625"/>
   <stop stop-color="#f0ce0b" offset=".6875"/>
   <stop stop-color="#f0aa0c" offset=".75"/>
   <stop stop-color="#ffd900" offset="1"/>
  </linearGradient>
  <linearGradient id="linearGradient1686" x1="1655.9" x2="1561.9" y1="655.03" y2="367.53" gradientTransform="translate(-73.236 -11.978)" gradientUnits="userSpaceOnUse">
   <stop stop-color="#1e427c" offset="0"/>
   <stop stop-color="#5373a7" offset="1"/>
  </linearGradient>
  <linearGradient id="linearGradient1141" x1="893.78" x2="1255.8" y1="-484.92" y2="1410.1" gradientUnits="userSpaceOnUse">
   <stop stop-color="#1e427c" offset="0"/>
   <stop stop-color="#4471aa" offset="1"/>
  </linearGradient>
  <radialGradient id="radialGradient1164" cx="494" cy="556.57" r="1922" gradientTransform="matrix(1.0725 -.64308 .38446 .64115 -249.77 517.41)" gradientUnits="userSpaceOnUse">
   <stop stop-color="#e3e5fc" stop-opacity=".28283" offset="0"/>
   <stop stop-color="#7ca4e5" stop-opacity="0" offset="1"/>
  </radialGradient>
  <clipPath id="clipPath1210">
   <path d="m80 140v800h800v-800z" fill="url(#linearGradient1214)"/>
  </clipPath>
  <linearGradient id="linearGradient1214" x1="146.47" x2="826.26" y1="211.9" y2="900.62" gradientTransform="translate(-289.08 -8.1047)" gradientUnits="userSpaceOnUse" xlink:href="#linearGradient9147"/>
 </defs>
 <metadata>
  <rdf:RDF>
   <cc:Work rdf:about="">
    <dc:format>image/svg+xml</dc:format>
    <dc:type rdf:resource="http://purl.org/dc/dcmitype/StillImage"/>
    <dc:title>JOSM Logotype 2019</dc:title>
    <dc:date>2019-08-05</dc:date>
    <dc:creator>
     <cc:Agent>
      <dc:title>Diamond00744</dc:title>
     </cc:Agent>
    </dc:creator>
    <dc:rights>
     <cc:Agent>
      <dc:title>Public Domain</dc:title>
     </cc:Agent>
    </dc:rights>
   </cc:Work>
  </rdf:RDF>
 </metadata>
 <g display="none">
  <rect x="-2053.4" y="-1194.9" width="5871.8" height="3264" fill="url(#linearGradient1141)" style="paint-order:stroke fill markers"/>
 </g>
 <g display="none">
  <rect x="-2552" y="-1640" width="6912" height="4221.1" fill="url(#radialGradient1164)" style="paint-order:stroke fill markers"/>
 </g>
 <g display="none" fill="none" stroke="#eaf4ff" stroke-dasharray="28, 28" stroke-opacity=".14646" stroke-width="7">
  <path d="m-8.4853-1197.7c47.111 86.643 70.205 115.9 137.36 181.59 185.99 181.92 170.87 310.74 351.96 418.04 84.996 50.361 132.32 249.25 48.083 370.52-105.99 152.61-85.579 254.78-95.196 334.78"/>
  <path d="m154.51-1201.7c33.581 25.249 46.873 65.448 76.368 89.338 124.18 100.58 92.794 127.5 180.24 253.47 16.291 23.469 134.24 144.69 157.4 161.82 120.45 89.119 143.9 309.39 59.397 438.41-151.39 231.13-107.72 267.5-117.97 357.75"/>
  <path d="m613.77 882.62c-4.8013 5.6138-28.135 21.151-22.489 50.855 3.428 18.035-33.063 25.07-37.845 28.258-27.543 18.362-15.746-29.349-33.711-59.314"/>
  <path d="m110 892c-47.659 68.525-79.01 140.02-116 214-37.539 75.079 81.241 233.52 74 248-24.76 49.52-22.686 106.74-36 160-14.026 56.104-46.616 112.54-68 166-28.498 71.245-113.33 166.65-148 236-16.131 32.263-65.92 50.861-86 86-24.257 42.45-45.633 96.042-76 134"/>
  <path d="m178 2076c70.928-81.82 80-202.19 80-306 0-194.09-48.906-380.65-46-574 1.153-76.721 120.87-190.07 138-146 7.6446 19.665 65.662 16.765 62 46-4.3284 34.551 141.47-30.407 102 8-15.17 14.763 18.872 54.561 52 60 71.852 11.797 103.51-20.048 116-42 11.231-19.731 61.669 5.8195 72 6 127.7 2.2312 90.204-96.578 134-100 63.884-4.991 69.116 12.994 116.46 18.567 32.325 3.8047 66.516 87.759 71.47 116.16 10.159-65.215-6.9881-103.17-9.0036-108.92-6.7324-19.226-52.482-65.605-82.929-73.799-106.33-28.615-110.3-54.497-146-114"/>
  <path d="m1075.9 1162.7c21 79-69.932 106.28-69.932 183.28"/>
 </g>
 <g display="none" shape-rendering="auto">
  <path d="m364.01 1281.2c-21.552 0-33.852 4.0186-41.337 9.7764-3.7425 2.8789-6.0956 6.2209-7.3367 9.0856-1.2416 2.8646-1.4125 6.1813-1.4125 6.1813v109.56s0.17215 3.3167 1.4125 6.1813c1.2411 2.8646 3.5942 6.2067 7.3367 9.0856 7.4851 5.7577 19.786 9.7764 41.337 9.7764 21.552 0 33.852-4.0187 41.337-9.7764 3.7425-2.8789 6.0956-6.221 7.3368-9.0856 1.2415-2.8646 1.4124-6.1813 1.4124-6.1813v-109.56s-0.17215-3.3167-1.4124-6.1813c-1.2412-2.8647-3.5943-6.2067-7.3368-9.0856-7.4851-5.7578-19.786-9.7764-41.337-9.7764zm122.09 0c-21.552 0-33.852 4.0186-41.337 9.7764-3.7424 2.8789-6.0956 6.2209-7.3368 9.0856-1.2415 2.8646-1.4124 6.1813-1.4124 6.1813v31.304c0 6.026 3.4641 10.09 6.6888 12.925 3.2249 2.835 6.9417 5.022 11.134 7.1718 8.3841 4.2997 18.721 8.2357 28.895 12.149 10.174 3.913 20.185 7.803 27.061 11.33 3.4382 1.7631 6.08 3.4892 7.3061 4.5672 0.3068 0.2707 0.21921 0.2013 0.3068 0.3056v28.675c-0.0593 0.1453-0.20029 0.5821-1.4246 1.5224-2.6906 2.0687-10.737 5.8759-29.88 5.8759-19.144 0-27.191-3.8075-29.879-5.8756-1.286-0.9893-1.4544-1.4937-1.4979-1.6019-1.4857-11.68-18.749-10.558-18.709 1.2167 0 0 0.17214 3.3167 1.4124 6.1813 1.2412 2.8646 3.5945 6.2067 7.3368 9.0856 7.4851 5.7577 19.786 9.7764 41.337 9.7764 21.552 0 33.852-4.0187 41.337-9.7764 3.7425-2.8789 6.0956-6.221 7.3368-9.0856 1.2415-2.8646 1.4125-6.1813 1.4125-6.1813v-31.304c0-6.0261-3.4642-10.09-6.6889-12.925-3.2249-2.835-6.9417-5.022-11.134-7.1718-8.3842-4.2997-18.721-8.2357-28.895-12.149-10.174-3.913-20.185-7.803-27.061-11.33-3.4381-1.7631-6.08-3.4892-7.306-4.5672-0.30996-0.2708-0.21909-0.2012-0.30681-0.3055v-28.675c0.0593-0.1452 0.20029-0.5819 1.4247-1.5224 2.6906-2.0685 10.737-5.8758 29.88-5.8758 19.144 0 27.191 3.8074 29.88 5.8757 1.2859 0.9892 1.4544 1.4936 1.4978 1.6019 1.4857 11.68 18.749 10.558 18.709-1.2167 0 0-0.17227-3.3167-1.4125-6.1813-1.2412-2.8647-3.5943-6.2067-7.3368-9.0856-7.4851-5.7578-19.786-9.7764-41.337-9.7764zm-203.62 2.9959c-5.1842 0.078-9.3248 4.3414-9.2506 9.5257v124.64c-1.5583 1.5205-4.0301 3.7113-6.2608 3.7113h-31.304c-3.1304 0-7.8383-5.2092-7.8383-5.2092-6.8897-10.692-22.847-0.054-15.628 10.418 0 0 7.8138 13.573 23.466 13.573h31.304c15.652 0 23.466-13.573 23.466-13.573 1.0283-1.5426 1.5774-3.3552 1.5774-5.2092v-128.35c0.0757-5.2944-4.2375-9.605-9.532-9.5257zm378.64 0.1406c-3.2524 0.097-6.223 1.8718-7.8508 4.6895l-38.824 67.298-38.824-67.298c-4.8068-8.3135-17.517-4.9075-17.523 4.6956v134.61c-0.17846 12.7 18.962 12.7 18.782 0v-99.537l29.433 51.016c3.6159 6.2569 12.648 6.2569 16.264 0l29.433-51.016v99.537c-0.17846 12.7 18.962 12.7 18.783 0v-134.61c0-5.2958-4.3788-9.5431-9.6724-9.3851zm-297.11 15.646c19.144 0 27.191 3.8074 29.88 5.8757 1.2227 0.9405 1.3638 1.377 1.4246 1.5224v107.29c-0.0593 0.1452-0.20041 0.5819-1.4246 1.5224-2.6888 2.0681-10.736 5.8756-29.88 5.8756-19.144 0-27.191-3.8075-29.879-5.8756-1.2228-0.9405-1.3639-1.377-1.4247-1.5224v-107.29c0.0593-0.1453 0.20041-0.5819 1.4247-1.5224 2.6887-2.0683 10.736-5.8757 29.879-5.8757z" color="#000000" color-rendering="auto" display="inline" dominant-baseline="auto" fill="#182f51" fill-opacity=".4596" image-rendering="auto" solid-color="#000000" style="font-feature-settings:normal;font-variant-alternates:normal;font-variant-caps:normal;font-variant-ligatures:normal;font-variant-numeric:normal;font-variant-position:normal;isolation:auto;mix-blend-mode:normal;shape-padding:0;text-decoration-color:#000000;text-decoration-line:none;text-decoration-style:solid;text-indent:0;text-orientation:mixed;text-transform:none;white-space:normal"/>
  <path d="m361.31 1277.6c-21.552 0-33.852 4.0187-41.337 9.7764-3.7425 2.8789-6.0956 6.221-7.3368 9.0856-1.2415 2.8646-1.4124 6.1813-1.4124 6.1813v109.56s0.17214 3.3167 1.4124 6.1813c1.2412 2.8647 3.5943 6.2067 7.3368 9.0856 7.4851 5.7578 19.786 9.7764 41.337 9.7764 21.552 0 33.852-4.0186 41.337-9.7764 3.7425-2.8789 6.0956-6.2209 7.3368-9.0856 1.2415-2.8646 1.4124-6.1813 1.4124-6.1813v-109.56s-0.17214-3.3167-1.4124-6.1813c-1.2412-2.8646-3.5943-6.2067-7.3368-9.0856-7.4851-5.7577-19.786-9.7764-41.337-9.7764zm122.09 0c-21.552 0-33.852 4.0187-41.337 9.7764-3.7424 2.8789-6.0956 6.221-7.3368 9.0856-1.2415 2.8646-1.4124 6.1813-1.4124 6.1813v31.304c0 6.0261 3.4641 10.09 6.6888 12.925 3.2249 2.835 6.9417 5.022 11.134 7.1718 8.3842 4.2997 18.721 8.2357 28.895 12.149 10.174 3.913 20.185 7.8032 27.061 11.33 3.4381 1.7631 6.08 3.4892 7.306 4.5672 0.30681 0.2708 0.21922 0.2013 0.30681 0.3056v28.675c-0.0593 0.1451-0.20029 0.5819-1.4246 1.5223-2.6906 2.0686-10.737 5.8759-29.88 5.8759-19.144 0-27.191-3.8074-29.88-5.8757-1.2859-0.9893-1.4543-1.4936-1.4978-1.6019-1.4857-11.68-18.749-10.558-18.709 1.2167 0 0 0.17215 3.3167 1.4124 6.1813 1.2412 2.8647 3.5945 6.2067 7.3368 9.0856 7.4851 5.7578 19.786 9.7764 41.337 9.7764 21.552 0 33.852-4.0186 41.337-9.7764 3.7425-2.8789 6.0956-6.2209 7.3368-9.0856 1.2415-2.8646 1.4125-6.1813 1.4125-6.1813v-31.304c0-6.026-3.4642-10.09-6.6889-12.925-3.2249-2.835-6.9417-5.022-11.134-7.1718-8.3842-4.2997-18.721-8.2357-28.895-12.149-10.174-3.913-20.185-7.803-27.061-11.33-3.4382-1.7631-6.08-3.4892-7.306-4.5671-0.30997-0.2708-0.2191-0.2013-0.30681-0.3055v-28.675c0.0593-0.1453 0.20029-0.582 1.4247-1.5225 2.6904-2.0685 10.737-5.8757 29.88-5.8757 19.144 0 27.191 3.8073 29.879 5.8756 1.286 0.9892 1.4544 1.4937 1.4979 1.6019 1.4857 11.68 18.749 10.558 18.709-1.2167 0 0-0.17227-3.3167-1.4125-6.1813-1.2412-2.8646-3.5943-6.2067-7.3368-9.0856-7.4851-5.7577-19.786-9.7764-41.337-9.7764zm-203.62 2.9959c-5.1843 0.078-9.3248 4.3415-9.2506 9.5258v124.64c-1.5583 1.5206-4.0301 3.7114-6.2608 3.7114h-31.304c-3.1304 0-7.8383-5.2093-7.8383-5.2093-6.8897-10.692-22.847-0.054-15.628 10.418 0 0 7.8138 13.573 23.466 13.573h31.304c15.652 0 23.466-13.573 23.466-13.573 1.0284-1.5426 1.5774-3.3552 1.5774-5.2091v-128.35c0.0745-5.2945-4.2374-9.6051-9.5318-9.5258zm378.64 0.1406c-3.2524 0.097-6.223 1.8719-7.8508 4.6895l-38.824 67.298-38.824-67.298c-4.8068-8.3135-17.518-4.9075-17.523 4.6957v134.61c-0.17845 12.7 18.962 12.7 18.782 0v-99.538l29.433 51.016c3.6159 6.2569 12.648 6.2569 16.264 0l29.433-51.016v99.538c-0.17845 12.7 18.962 12.7 18.783 0v-134.61c0-5.2959-4.3788-9.5431-9.6724-9.3852zm-297.11 15.646c19.144 0 27.191 3.8073 29.88 5.8756 1.2227 0.9405 1.3638 1.377 1.4246 1.5224v107.29c-0.0593 0.1453-0.20042 0.5819-1.4246 1.5224-2.6888 2.0683-10.736 5.8757-29.88 5.8757-19.144 0-27.191-3.8074-29.879-5.8757-1.2228-0.9405-1.3639-1.377-1.4247-1.5224v-107.29c0.0593-0.1452 0.20041-0.5819 1.4247-1.5224 2.6887-2.0683 10.736-5.8756 29.879-5.8756z" color="#000000" color-rendering="auto" display="inline" dominant-baseline="auto" fill="#d6e3fa" fill-opacity=".93939" image-rendering="auto" solid-color="#000000" style="font-feature-settings:normal;font-variant-alternates:normal;font-variant-caps:normal;font-variant-ligatures:normal;font-variant-numeric:normal;font-variant-position:normal;isolation:auto;mix-blend-mode:normal;shape-padding:0;text-decoration-color:#000000;text-decoration-line:none;text-decoration-style:solid;text-indent:0;text-orientation:mixed;text-transform:none;white-space:normal"/>
 </g>
 <g display="none" shape-rendering="auto">
  <path d="m1321.2 365.6c-36.24 0-56.924 6.7575-69.51 16.439-6.2931 4.841-10.25 10.461-12.337 15.278-2.0877 4.8169-2.3751 10.394-2.3751 10.394v184.24s0.2896 5.5773 2.3751 10.394c2.0872 4.8169 6.044 10.437 12.337 15.278 12.586 9.682 33.27 16.439 69.51 16.439 36.24 0 56.924-6.7575 69.51-16.439 6.2931-4.841 10.25-10.461 12.337-15.278 2.0876-4.8169 2.3751-10.394 2.3751-10.394v-184.24s-0.2896-5.5773-2.3751-10.394c-2.0872-4.8169-6.044-10.437-12.337-15.278-12.586-9.682-33.27-16.439-69.51-16.439zm205.29 0c-36.24 0-56.924 6.7575-69.51 16.439-6.293 4.841-10.25 10.461-12.337 15.278-2.0877 4.8169-2.3751 10.394-2.3751 10.394v52.639c0 10.133 5.8251 16.967 11.247 21.734 5.423 4.7672 11.673 8.4446 18.722 12.06 14.098 7.2301 31.48 13.849 48.588 20.429 17.108 6.5799 33.941 13.121 45.504 19.051 5.7813 2.9648 10.224 5.8673 12.285 7.68 0.5159 0.45533 0.3685 0.33847 0.5159 0.51376v48.218c-0.1001 0.24424-0.337 0.97861-2.3957 2.56-4.5243 3.4783-18.054 9.8804-50.245 9.8804s-45.722-6.4023-50.244-9.8801c-2.1624-1.6635-2.4456-2.5116-2.5188-2.6936-2.4982-19.641-31.527-17.753-31.46 2.0459 0 0 0.2896 5.5773 2.3751 10.394 2.0872 4.8169 6.0441 10.437 12.337 15.278 12.586 9.682 33.271 16.439 69.51 16.439 36.24 0 56.924-6.7575 69.51-16.439 6.2931-4.841 10.25-10.461 12.337-15.278 2.0876-4.8169 2.3751-10.394 2.3751-10.394v-52.639c0-10.133-5.8251-16.967-11.248-21.734-5.4228-4.7672-11.673-8.4446-18.722-12.06-14.098-7.2301-31.48-13.849-48.588-20.429-17.108-6.5799-33.941-13.121-45.504-19.051-5.7814-2.9648-10.224-5.8673-12.286-7.68-0.5211-0.45533-0.3684-0.33847-0.5158-0.51376v-48.218c0.1-0.24425 0.3368-0.97862 2.3956-2.56 4.5243-3.4783 18.054-9.8804 50.245-9.8804s45.722 6.4023 50.244 9.8801c2.1624 1.6634 2.4456 2.5116 2.5187 2.6936 2.4983 19.641 31.527 17.753 31.46-2.0459 0 0-0.2895-5.5773-2.3751-10.394-2.0872-4.8169-6.044-10.437-12.337-15.278-12.586-9.682-33.27-16.439-69.51-16.439zm-342.39 5.0377c-8.7175 0.13055-15.68 7.3003-15.555 16.018v209.58c-2.6203 2.5568-6.7768 6.2406-10.528 6.2406h-52.639c-5.2639 0-13.18-8.7595-13.18-8.7595-11.585-17.979-38.419-0.0905-26.278 17.519 0 0 13.139 22.824 39.459 22.824h52.639c26.319 0 39.459-22.824 39.459-22.824 1.7292-2.594 2.6526-5.6419 2.6526-8.7595v-215.82c0.1262-8.9028-7.1253-16.151-16.028-16.018zm636.7 0.23636c-5.4692 0.16422-10.464 3.1477-13.201 7.8857l-65.285 113.16-65.285-113.16c-8.0827-13.98-29.456-8.2522-29.466 7.8959v226.35c-0.3001 21.356 31.886 21.356 31.583 0v-167.38l49.493 85.785c6.0804 10.521 21.268 10.521 27.348 0l49.493-85.785v167.38c-0.3 21.356 31.886 21.356 31.584 0v-226.35c0-8.9051-7.3631-16.047-16.264-15.781zm-499.6 26.309c32.191 0 45.722 6.4023 50.244 9.8801 2.0561 1.5814 2.2934 2.3155 2.3956 2.56v180.41c-0.1 0.24424-0.3369 0.97861-2.3956 2.56-4.5212 3.4778-18.053 9.8801-50.244 9.8801-32.191 0-45.722-6.4023-50.244-9.8801-2.0561-1.5814-2.2934-2.3155-2.3957-2.56v-180.41c0.1001-0.24425 0.337-0.97862 2.3957-2.56 4.5212-3.4778 18.053-9.8801 50.244-9.8801z" color="#000000" color-rendering="auto" display="inline" dominant-baseline="auto" fill="#182f51" fill-opacity=".5303" image-rendering="auto" solid-color="#000000" style="font-feature-settings:normal;font-variant-alternates:normal;font-variant-caps:normal;font-variant-ligatures:normal;font-variant-numeric:normal;font-variant-position:normal;isolation:auto;mix-blend-mode:normal;shape-padding:0;text-decoration-color:#000000;text-decoration-line:none;text-decoration-style:solid;text-indent:0;text-orientation:mixed;text-transform:none;white-space:normal"/>
  <path d="m1316.7 359.51c-36.24 0-56.924 6.7575-69.51 16.439-6.2931 4.841-10.25 10.461-12.337 15.278-2.0876 4.8169-2.3751 10.394-2.3751 10.394v184.24s0.2896 5.5773 2.3751 10.394c2.0872 4.8169 6.044 10.437 12.337 15.278 12.586 9.682 33.27 16.439 69.51 16.439 36.24 0 56.924-6.7575 69.51-16.439 6.2931-4.841 10.25-10.461 12.337-15.278 2.0877-4.8169 2.3751-10.394 2.3751-10.394v-184.24s-0.2896-5.5773-2.3751-10.394c-2.0872-4.8169-6.044-10.437-12.337-15.278-12.586-9.682-33.27-16.439-69.51-16.439zm205.29 0c-36.24 0-56.924 6.7575-69.51 16.439-6.293 4.841-10.25 10.461-12.337 15.278-2.0876 4.8169-2.3751 10.394-2.3751 10.394v52.639c0 10.133 5.8251 16.967 11.248 21.734 5.4229 4.7672 11.673 8.4446 18.722 12.06 14.098 7.2301 31.48 13.849 48.588 20.429 17.108 6.5799 33.941 13.121 45.504 19.051 5.7813 2.9648 10.224 5.8673 12.285 7.68 0.5159 0.45533 0.3685 0.33847 0.5159 0.51377v48.218c-0.1 0.24425-0.3369 0.97862-2.3956 2.56-4.5243 3.4783-18.054 9.8804-50.245 9.8804-32.191 0-45.722-6.4023-50.244-9.8801-2.1624-1.6634-2.4455-2.5116-2.5187-2.6936-2.4982-19.641-31.527-17.753-31.46 2.0459 0 0 0.2896 5.5773 2.3751 10.394 2.0872 4.8169 6.0441 10.437 12.337 15.278 12.586 9.682 33.271 16.439 69.51 16.439 36.24 0 56.924-6.7575 69.511-16.439 6.293-4.841 10.25-10.461 12.337-15.278 2.0877-4.8169 2.3752-10.394 2.3752-10.394v-52.639c0-10.133-5.8252-16.967-11.248-21.734-5.4229-4.7672-11.673-8.4446-18.722-12.06-14.098-7.2301-31.48-13.849-48.588-20.429-17.108-6.5799-33.941-13.121-45.504-19.051-5.7814-2.9648-10.224-5.8673-12.286-7.68-0.5211-0.45533-0.3684-0.33847-0.5158-0.51376v-48.218c0.1001-0.24424 0.3369-0.97861 2.3957-2.56 4.5243-3.4783 18.054-9.8804 50.245-9.8804 32.191 0 45.722 6.4023 50.244 9.8801 2.1624 1.6635 2.4456 2.5116 2.5188 2.6936 2.4982 19.641 31.527 17.753 31.46-2.0459 0 0-0.2896-5.5773-2.3752-10.394-2.0872-4.8169-6.044-10.437-12.337-15.278-12.587-9.682-33.271-16.439-69.511-16.439zm-342.39 5.0377c-8.7176 0.13054-15.68 7.3003-15.555 16.018v209.58c-2.6203 2.5568-6.7768 6.2406-10.528 6.2406h-52.639c-5.264 0-13.18-8.7595-13.18-8.7595-11.585-17.979-38.419-0.0905-26.279 17.519 0 0 13.139 22.824 39.459 22.824h52.639c26.32 0 39.459-22.824 39.459-22.824 1.7292-2.594 2.6525-5.6418 2.6525-8.7595v-215.82c0.1263-8.9028-7.1253-16.151-16.028-16.018zm636.7 0.23635c-5.4692 0.16423-10.464 3.1477-13.201 7.8857l-65.285 113.16-65.285-113.16c-8.0827-13.98-29.456-8.2522-29.466 7.8959v226.35c-0.3001 21.356 31.886 21.356 31.584 0v-167.38l49.493 85.785c6.0803 10.521 21.268 10.521 27.348 0l49.493-85.785v167.38c-0.3 21.356 31.886 21.356 31.584 0v-226.35c0-8.9051-7.3632-16.047-16.264-15.781zm-499.6 26.309c32.191 0 45.722 6.4023 50.244 9.8801 2.0561 1.5814 2.2934 2.3155 2.3957 2.56v180.41c-0.1001 0.24425-0.337 0.97862-2.3957 2.56-4.5212 3.4778-18.053 9.8801-50.244 9.8801s-45.722-6.4023-50.244-9.8801c-2.0561-1.5814-2.2934-2.3155-2.3956-2.56v-180.41c0.1-0.24424 0.3369-0.97861 2.3956-2.56 4.5212-3.4778 18.053-9.8801 50.244-9.8801z" color="#000000" color-rendering="auto" display="inline" dominant-baseline="auto" fill="#bdd2f3" image-rendering="auto" solid-color="#000000" style="font-feature-settings:normal;font-variant-alternates:normal;font-variant-caps:normal;font-variant-ligatures:normal;font-variant-numeric:normal;font-variant-position:normal;isolation:auto;mix-blend-mode:normal;shape-padding:0;text-decoration-color:#000000;text-decoration-line:none;text-decoration-style:solid;text-indent:0;text-orientation:mixed;text-transform:none;white-space:normal"/>
 </g>
 <g display="none" shape-rendering="auto">
  <path d="m1364.5 335.87c-44.454 0-69.825 8.289-85.264 20.165-7.7194 5.9381-12.573 12.832-15.133 18.74-2.5608 5.9086-2.9134 12.75-2.9134 12.75v225.99s0.3552 6.8413 2.9134 12.75c2.5602 5.9086 7.4138 12.802 15.133 18.74 15.439 11.876 40.811 20.165 85.264 20.165 44.453 0 69.825-8.289 85.264-20.165 7.7194-5.9381 12.573-12.832 15.133-18.74 2.5608-5.9086 2.9134-12.75 2.9134-12.75v-225.99s-0.3552-6.8413-2.9134-12.75c-2.5602-5.9086-7.4138-12.802-15.133-18.74-15.439-11.876-40.811-20.165-85.264-20.165zm251.82 0c-44.453 0-69.825 8.289-85.264 20.165-7.7193 5.9381-12.573 12.832-15.133 18.74-2.5608 5.9086-2.9134 12.75-2.9134 12.75v64.569c0 12.43 7.1453 20.812 13.797 26.66 6.652 5.8476 14.318 10.359 22.965 14.793 17.294 8.8687 38.615 16.987 59.6 25.058 20.985 8.0712 41.634 16.095 55.818 23.369 7.0916 3.6368 12.541 7.197 15.07 9.4206 0.6328 0.55853 0.452 0.41518 0.6328 0.63021v59.147c-0.1227 0.2996-0.4133 1.2004-2.9386 3.1402-5.5497 4.2667-22.146 12.12-61.633 12.12-39.487 0-56.085-7.8533-61.631-12.119-2.6525-2.0405-2.9998-3.0808-3.0896-3.3041-3.0644-24.093-38.672-21.777-38.591 2.5096 0 0 0.3552 6.8413 2.9134 12.75 2.5602 5.9086 7.4139 12.802 15.133 18.74 15.439 11.876 40.811 20.165 85.264 20.165 44.454 0 69.825-8.289 85.265-20.165 7.7193-5.9381 12.573-12.832 15.133-18.74 2.5608-5.9086 2.9135-12.75 2.9135-12.75v-64.569c0-12.43-7.1454-20.812-13.797-26.66-6.6519-5.8476-14.318-10.359-22.965-14.793-17.294-8.8687-38.615-16.987-59.6-25.058-20.985-8.0712-41.634-16.095-55.818-23.369-7.0917-3.6368-12.541-7.197-15.07-9.4206-0.6392-0.55853-0.4519-0.41518-0.6327-0.6302v-59.147c0.1227-0.2996 0.4132-1.2004 2.9386-3.1402 5.5497-4.2667 22.146-12.12 61.633-12.12 39.487 0 56.085 7.8533 61.631 12.119 2.6525 2.0405 2.9999 3.0808 3.0896 3.3041 3.0645 24.093 38.672 21.777 38.591-2.5096 0 0-0.3552-6.8413-2.9135-12.75-2.5602-5.9086-7.4138-12.802-15.133-18.74-15.439-11.876-40.811-20.165-85.265-20.165zm-419.99 6.1795c-10.693 0.16013-19.234 8.9549-19.081 19.648v257.08c-3.2142 3.1363-8.3127 7.655-12.914 7.655h-64.569c-6.457 0-16.168-10.745-16.168-10.745-14.211-22.054-47.126-0.11106-32.234 21.489 0 0 16.117 27.997 48.402 27.997h64.569c32.285 0 48.402-27.997 48.402-27.997 2.1211-3.1819 3.2537-6.9205 3.2537-10.745v-264.73c0.1549-10.921-8.7402-19.812-19.661-19.648zm781 0.28992c-6.7088 0.20145-12.836 3.8611-16.193 9.6729l-80.081 138.81-80.081-138.81c-9.9146-17.148-36.132-10.122-36.144 9.6854v277.65c-0.3681 26.196 39.112 26.196 38.742 0v-205.31l60.71 105.23c7.4584 12.906 26.088 12.906 33.546 0l60.71-105.23v205.31c-0.368 26.196 39.112 26.196 38.742 0v-277.65c0-10.923-9.032-19.684-19.951-19.358zm-612.83 32.272c39.487 0 56.085 7.8533 61.631 12.119 2.5221 1.9398 2.8132 2.8403 2.9386 3.1402v221.3c-0.1227 0.2996-0.4133 1.2004-2.9386 3.1402-5.5459 4.266-22.144 12.119-61.631 12.119-39.487 0-56.085-7.8533-61.631-12.119-2.5221-1.9398-2.8132-2.8403-2.9386-3.1402v-221.3c0.1227-0.2996 0.4133-1.2004 2.9386-3.1402 5.5459-4.266 22.144-12.119 61.631-12.119z" color="#000000" color-rendering="auto" display="inline" dominant-baseline="auto" fill="#182f51" fill-opacity=".075758" image-rendering="auto" solid-color="#000000" style="font-feature-settings:normal;font-variant-alternates:normal;font-variant-caps:normal;font-variant-ligatures:normal;font-variant-numeric:normal;font-variant-position:normal;isolation:auto;mix-blend-mode:normal;shape-padding:0;text-decoration-color:#000000;text-decoration-line:none;text-decoration-style:solid;text-indent:0;text-orientation:mixed;text-transform:none;white-space:normal"/>
  <path d="m1359 328.4c-44.454 0-69.825 8.289-85.264 20.165-7.7194 5.9381-12.573 12.832-15.133 18.74-2.5608 5.9086-2.9134 12.75-2.9134 12.75v225.99s0.3552 6.8413 2.9134 12.75c2.5602 5.9086 7.4138 12.802 15.133 18.74 15.439 11.876 40.811 20.165 85.264 20.165 44.453 0 69.825-8.289 85.264-20.165 7.7194-5.9381 12.573-12.832 15.133-18.74 2.5608-5.9086 2.9134-12.75 2.9134-12.75v-225.99s-0.3552-6.8413-2.9134-12.75c-2.5602-5.9086-7.4138-12.802-15.133-18.74-15.439-11.876-40.811-20.165-85.264-20.165zm251.82 0c-44.453 0-69.825 8.289-85.264 20.165-7.7193 5.9381-12.573 12.832-15.133 18.74-2.5608 5.9086-2.9134 12.75-2.9134 12.75v64.569c0 12.43 7.1453 20.812 13.797 26.66 6.652 5.8476 14.318 10.359 22.965 14.793 17.294 8.8687 38.615 16.987 59.6 25.058 20.985 8.0712 41.634 16.095 55.818 23.369 7.0916 3.6368 12.541 7.197 15.07 9.4206 0.6328 0.55853 0.452 0.41518 0.6328 0.63021v59.147c-0.1227 0.2996-0.4133 1.2004-2.9386 3.1402-5.5497 4.2667-22.146 12.12-61.633 12.12-39.487 0-56.085-7.8533-61.631-12.119-2.6525-2.0405-2.9998-3.0808-3.0896-3.3041-3.0644-24.093-38.672-21.777-38.591 2.5096 0 0 0.3552 6.8413 2.9134 12.75 2.5602 5.9086 7.4139 12.802 15.133 18.74 15.439 11.876 40.811 20.165 85.264 20.165 44.454 0 69.825-8.289 85.265-20.165 7.7193-5.9381 12.573-12.832 15.133-18.74 2.5608-5.9086 2.9135-12.75 2.9135-12.75v-64.569c0-12.43-7.1454-20.812-13.797-26.66-6.6519-5.8476-14.318-10.359-22.965-14.793-17.294-8.8687-38.615-16.987-59.6-25.058-20.985-8.0712-41.634-16.095-55.818-23.369-7.0917-3.6368-12.541-7.197-15.07-9.4206-0.6392-0.55853-0.4519-0.41518-0.6327-0.6302v-59.147c0.1227-0.2996 0.4132-1.2004 2.9386-3.1402 5.5497-4.2667 22.146-12.12 61.633-12.12 39.487 0 56.085 7.8533 61.631 12.119 2.6525 2.0405 2.9999 3.0808 3.0896 3.3041 3.0645 24.093 38.672 21.777 38.591-2.5096 0 0-0.3552-6.8413-2.9135-12.75-2.5602-5.9086-7.4138-12.802-15.133-18.74-15.439-11.876-40.811-20.165-85.265-20.165zm-419.99 6.1795c-10.693 0.16013-19.234 8.9549-19.081 19.648v257.08c-3.2142 3.1363-8.3127 7.655-12.914 7.655h-64.569c-6.457 0-16.168-10.745-16.168-10.745-14.211-22.054-47.126-0.11106-32.234 21.489 0 0 16.117 27.997 48.402 27.997h64.569c32.285 0 48.402-27.997 48.402-27.997 2.1211-3.1819 3.2537-6.9205 3.2537-10.745v-264.73c0.1549-10.921-8.7402-19.812-19.661-19.648zm781 0.28992c-6.7088 0.20145-12.836 3.8611-16.193 9.6729l-80.081 138.81-80.081-138.81c-9.9146-17.148-36.132-10.122-36.144 9.6854v277.65c-0.3681 26.196 39.112 26.196 38.742 0v-205.31l60.71 105.23c7.4584 12.906 26.088 12.906 33.546 0l60.71-105.23v205.31c-0.368 26.196 39.112 26.196 38.742 0v-277.65c0-10.923-9.032-19.684-19.951-19.358zm-612.83 32.272c39.487 0 56.085 7.8533 61.631 12.119 2.5221 1.9398 2.8132 2.8403 2.9386 3.1402v221.3c-0.1227 0.2996-0.4133 1.2004-2.9386 3.1402-5.5459 4.266-22.144 12.119-61.631 12.119-39.487 0-56.085-7.8533-61.631-12.119-2.5221-1.9398-2.8132-2.8403-2.9386-3.1402v-221.3c0.1227-0.2996 0.4133-1.2004 2.9386-3.1402 5.5459-4.266 22.144-12.119 61.631-12.119z" color="#000000" color-rendering="auto" display="inline" dominant-baseline="auto" fill="url(#linearGradient1686)" image-rendering="auto" solid-color="#000000" style="font-feature-settings:normal;font-variant-alternates:normal;font-variant-caps:normal;font-variant-ligatures:normal;font-variant-numeric:normal;font-variant-position:normal;isolation:auto;mix-blend-mode:normal;shape-padding:0;text-decoration-color:#000000;text-decoration-line:none;text-decoration-style:solid;text-indent:0;text-orientation:mixed;text-transform:none;white-space:normal"/>
 </g>
 <g display="none">
  <g fill="none" stroke="#000" stroke-linecap="round" stroke-linejoin="round" stroke-width="6">
   <path d="m1085 185v30s0 15-15 15c-3 0-5-3-5-3" display="inline"/>
   <path d="m1100 220v-25s0-12 15-12 15 12 15 12v25s1 12-15 12c-15 0-15-12-15-12z" display="inline"/>
   <path d="m1175 188s0-5-15-5-15 17-15 17c0 10 30 5 30 15 0 0 0 17-15 17s-15-7-15-7" display="inline"/>
   <path d="m1190 230v-45l15 25 15-25v45" display="inline"/>
   <path d="m1085 261v41s-2 3-5 3h-10c-3 0-5-3-5-3" display="inline"/>
   <path d="m1100 300v-35s0-5 15-5 15 5 15 5v35s1 5-15 5c-15 0-15-5-15-5z" display="inline"/>
   <path d="m1190 304v-43l15 26 15-26v43" display="inline"/>
   <path d="m1175 265s0-5-15-5-15 5-15 5v10c0 5 30 10 30 15v10s1 5-15 5c-15 0-15-5-15-5" display="inline"/>
   <path d="m1085 331v41s-2 3-5 3h-10c-3 0-5-3-5-3" display="inline"/>
   <path d="m1098 370v-35s0-5 15-5 15 5 15 5v35s1 5-15 5c-15 0-15-5-15-5z" display="inline"/>
   <path d="m1184 374v-43l15 26 15-26v43" display="inline"/>
   <path d="m1171 335s0-5-15-5-15 5-15 5v10c0 5 30 10 30 15v10s1 5-15 5c-15 0-15-5-15-5" display="inline"/>
   <path d="m1085 395v41s-2 3-5 3h-10c-3 0-5-3-5-3" display="inline"/>
   <path d="m1098 434v-35s0-5 13-5 13 5 13 5v35s0 5-13 5-13-5-13-5z" display="inline"/>
   <path d="m1176 438v-43l15 26 15-26v43" display="inline"/>
   <path d="m1163 399s0-5-13-5-13 5-13 5v10c0 5 26 10 26 15v10s0 5-13 5-13-5-13-5" display="inline"/>
  </g>
  <path d="m1110 452c-6.8846 0-10.814 1.2837-13.205 3.123-1.1955 0.91965-1.9472 1.9873-2.3437 2.9023-0.3966 0.91508-0.4512 1.9746-0.4512 1.9746v35s0.055 1.0595 0.4512 1.9746c0.3965 0.91508 1.1482 1.9827 2.3437 2.9023 2.3911 1.8393 6.3205 3.123 13.205 3.123s10.814-1.2837 13.205-3.123c1.1955-0.91965 1.9472-1.9873 2.3437-2.9023 0.3966-0.91508 0.4512-1.9746 0.4512-1.9746v-35s-0.055-1.0595-0.4512-1.9746c-0.3965-0.91508-1.1482-1.9827-2.3437-2.9023-2.3911-1.8393-6.3205-3.123-13.205-3.123zm39 0c-6.8846 0-10.814 1.2837-13.205 3.123-1.1955 0.91965-1.9472 1.9873-2.3437 2.9023-0.3966 0.91508-0.4512 1.9746-0.4512 1.9746v10c0 1.925 1.1066 3.2233 2.1367 4.1289 1.0302 0.90563 2.2175 1.6042 3.5567 2.291 2.6783 1.3735 5.9804 2.6309 9.2304 3.8809s6.4479 2.4927 8.6446 3.6191c1.0983 0.56324 1.9422 1.1146 2.3339 1.459 0.098 0.0865 0.07 0.0643 0.098 0.0976v9.1602c-0.019 0.0464-0.064 0.18591-0.4551 0.48633-0.8595 0.66079-3.4298 1.877-9.5452 1.877s-8.686-1.2163-9.5449-1.877c-0.4108-0.31601-0.4646-0.47713-0.4785-0.51172-0.4746-3.7313-5.9892-3.3726-5.9766 0.38867 0 0 0.055 1.0595 0.4512 1.9746 0.3965 0.91508 1.1482 1.9827 2.3437 2.9023 2.3911 1.8393 6.3205 3.123 13.205 3.123s10.814-1.2837 13.205-3.123c1.1955-0.91965 1.9472-1.9873 2.3437-2.9023 0.3966-0.91508 0.4512-1.9746 0.4512-1.9746v-10c0-1.925-1.1066-3.2233-2.1367-4.1289-1.0302-0.90563-2.2175-1.6042-3.5567-2.291-2.6783-1.3735-5.9804-2.6309-9.2304-3.8809s-6.4479-2.4927-8.6446-3.6191c-1.0983-0.56324-1.9422-1.1146-2.3339-1.459-0.099-0.0865-0.07-0.0643-0.098-0.0976v-9.1602c0.019-0.0464 0.064-0.18591 0.4551-0.48633 0.8595-0.66079 3.4298-1.877 9.5452-1.877s8.686 1.2163 9.5449 1.877c0.4108 0.31601 0.4646 0.47713 0.4785 0.51172 0.4746 3.7313 5.9892 3.3726 5.9766-0.38867 0 0-0.055-1.0595-0.4512-1.9746-0.3965-0.91508-1.1482-1.9827-2.3437-2.9023-2.3911-1.8393-6.3205-3.123-13.205-3.123zm-65.045 0.95703c-1.6561 0.0248-2.9788 1.3869-2.9551 3.043v39.814c-0.4978 0.48573-1.2874 1.1856-2 1.1856h-10c-1 0-2.5039-1.6641-2.5039-1.6641-2.2009-3.4156-7.2985-0.0172-4.9922 3.3281 0 0 2.4961 4.3359 7.4961 4.3359h10c5 0 7.4961-4.3359 7.4961-4.3359 0.3285-0.49279 0.5039-1.0718 0.5039-1.6641v-41c0.024-1.6913-1.3536-3.0683-3.0449-3.043zm120.96 0.0449c-1.039 0.0312-1.9879 0.59798-2.5079 1.4981l-12.402 21.498-12.402-21.498c-1.5355-2.6557-5.5959-1.5677-5.5977 1.5v43c-0.057 4.057 6.0574 4.057 6 0v-31.797l9.4023 16.297c1.1551 1.9987 4.0403 1.9987 5.1954 0l9.4023-16.297v31.797c-0.057 4.057 6.0574 4.057 6 0v-43c-5e-4 -1.6917-1.3988-3.0485-3.0898-2.998zm-94.91 4.9981c6.1154 0 8.686 1.2163 9.5449 1.877 0.3906 0.30042 0.4357 0.43989 0.4551 0.48633v34.273c-0.019 0.0464-0.064 0.18591-0.4551 0.48633-0.8589 0.66069-3.4295 1.877-9.5449 1.877s-8.686-1.2163-9.5449-1.877c-0.3906-0.30042-0.4357-0.43989-0.4551-0.48633v-34.273c0.019-0.0464 0.064-0.18591 0.4551-0.48633 0.8589-0.66069 3.4295-1.877 9.5449-1.877z" color="#000000" color-rendering="auto" display="inline" dominant-baseline="auto" image-rendering="auto" shape-rendering="auto" solid-color="#000000" style="font-feature-settings:normal;font-variant-alternates:normal;font-variant-caps:normal;font-variant-ligatures:normal;font-variant-numeric:normal;font-variant-position:normal;isolation:auto;mix-blend-mode:normal;shape-padding:0;text-decoration-color:#000000;text-decoration-line:none;text-decoration-style:solid;text-indent:0;text-orientation:mixed;text-transform:none;white-space:normal"/>
 </g>
 <g display="none">
  <g id="g3773" transform="translate(-40,-320)">
   <path d="m1320 320-126.92 50.767-31.082 21.733-42 7.5 41.772 3.2586 31.203 25.931 127.03 50.81 60-20v-120z" display="inline" fill="url(#linearGradient9439)"/>
   <g clip-path="url(#clipPath3411)">
    <path d="m1280 350v100h660v-100z" clip-path="none" display="inline" fill="#853909"/>
    <path d="m1940 380v-40l-85-10h-480l-95 10v40z" clip-path="none" fill="#974613"/>
    <path d="m1940 420v40l-85 10h-495l-80-10v-40z" clip-path="none" fill="#642b06"/>
    <path d="m1280 320v20h660v-20z" clip-path="none" display="inline" fill="#b25c28"/>
    <path d="m1280 460v20h660v-20z" clip-path="none" display="inline" fill="#4d2105"/>
   </g>
   <path d="m1780.1 386.07c-3.9797 0-6.2505 0.74145-7.6328 1.8047-0.691 0.53161-1.1262 1.1488-1.3554 1.6777-0.2288 0.52896-0.2618 1.1406-0.2618 1.1406v20.232s0.033 0.61361 0.2618 1.1426c0.2292 0.52897 0.6644 1.1461 1.3554 1.6777 1.3823 1.0632 3.6531 1.8047 7.6328 1.8047 3.9798 0 6.2506-0.74146 7.6328-1.8047 0.6911-0.53162 1.1263-1.1488 1.3555-1.6777 0.2288-0.52897 0.2598-1.1426 0.2598-1.1426v-20.232s-0.031-0.61167-0.2598-1.1406c-0.2292-0.52898-0.6643-1.1461-1.3555-1.6777-1.3821-1.0632-3.653-1.8047-7.6328-1.8047zm22.545 0c-3.9798 0-6.2526 0.74145-7.6348 1.8047-0.6911 0.53161-1.1243 1.1488-1.3535 1.6777-0.2297 0.52896-0.2617 1.1406-0.2617 1.1406v5.7812c0 1.1128 0.6388 1.8632 1.2343 2.3867 0.5955 0.52351 1.2826 0.92722 2.0567 1.3242 1.5483 0.79397 3.4572 1.5216 5.3359 2.2441s3.7282 1.4406 4.9981 2.0918c0.6349 0.32559 1.1212 0.64468 1.3476 0.84375 0.059 0.0496 0.043 0.0373 0.059 0.0566v5.2949c-0.011 0.0268-0.038 0.10759-0.2637 0.28125-0.4968 0.38198-1.9824 1.084-5.5175 1.084s-5.0212-0.70207-5.5176-1.084c-0.2374-0.18268-0.2674-0.27688-0.2774-0.29688-0.2731-2.1586-3.465-1.9512-3.455 0.22461 0 0 0.033 0.61361 0.2617 1.1426 0.2292 0.52897 0.6625 1.1461 1.3535 1.6777 1.3822 1.0632 3.6551 1.8047 7.6348 1.8047s6.2506-0.74146 7.6328-1.8047c0.691-0.53162 1.1261-1.1488 1.3554-1.6777 0.2298-0.52897 0.2598-1.1426 0.2598-1.1426v-5.7793c0-1.1128-0.639-1.8632-1.2344-2.3867-0.5956-0.52351-1.2825-0.92919-2.0566-1.3262-1.5483-0.79398-3.4572-1.5196-5.3359-2.2422-1.8787-0.7226-3.7263-1.4406-4.9961-2.0918-0.6349-0.32558-1.1232-0.64468-1.3496-0.84375-0.057-0.0496-0.041-0.0373-0.057-0.0566v-5.2949c0.011-0.0268 0.038-0.10759 0.2637-0.28125 0.4968-0.38198 1.9825-1.0859 5.5176-1.0859s5.021 0.70402 5.5175 1.0859c0.2374 0.18267 0.2654 0.27492 0.2754 0.29492 0.2721 2.1597 3.4651 1.9522 3.4551-0.22461 0 0-0.031-0.61167-0.2598-1.1406-0.2293-0.52898-0.6644-1.1461-1.3554-1.6777-1.3822-1.0632-3.6531-1.8047-7.6328-1.8047zm-37.602 0.55274c-0.9572 0.015-1.721 0.80261-1.707 1.7598v23.014c-0.2878 0.28077-0.7444 0.68555-1.1563 0.68555h-5.7812c-0.5781 0-1.4473-0.96094-1.4473-0.96094-1.2643-2.0118-4.2562-0.0165-2.8848 1.9238 0 0 1.4418 2.5059 4.3321 2.5059h5.7812c2.8903 0 4.332-2.5059 4.332-2.5059 0.1907-0.28495 0.2926-0.62003 0.293-0.96289v-23.699c0.014-0.97858-0.7832-1.7753-1.7617-1.7598zm52.719 0.0234c-0.9047-0.0348-1.8222 0.62738-1.8222 1.7363v24.855c-0.01 2.3208 3.4787 2.3208 3.4687 0v-18.381l5.4336 9.4219c0.6675 1.1561 2.3363 1.1561 3.0039 0l5.4356-9.4219v18.381c-0.01 2.3208 3.4787 2.3208 3.4687 0v-24.855c4e-4 -0.97885-0.8087-1.7642-1.7871-1.7344-0.6007 0.0185-1.149 0.34656-1.4492 0.86718l-7.1699 12.426-7.168-12.426c-0.3327-0.5762-0.8712-0.84826-1.4141-0.86914zm-37.662 2.8906c3.5351 0 5.0211 0.70403 5.5176 1.0859 0.2257 0.17367 0.2527 0.25445 0.2637 0.28125v19.812c-0.011 0.0268-0.038 0.10759-0.2637 0.28125-0.4965 0.38192-1.9825 1.084-5.5176 1.084s-5.0209-0.70206-5.5175-1.084c-0.2257-0.17366-0.2527-0.25445-0.2637-0.28125v-19.812c0.011-0.0268 0.038-0.10758 0.2637-0.28125 0.4966-0.38191 1.9824-1.0859 5.5175-1.0859z" display="inline" fill="#120e02" fill-opacity=".84343" filter="url(#filter4629-1)" style="paint-order:normal"/>
   <path d="m1115 400 65-40c30 15 30 65 0 80z" clip-path="url(#clipPath3446)" fill="#3d3d3d"/>
   <path d="m1779.5 385.19c-3.9797 0-6.2511 0.74208-7.6334 1.8053-0.691 0.53161-1.1255 1.1488-1.3548 1.6777-0.2292 0.52896-0.2608 1.1414-0.2608 1.1414v20.232s0.032 0.61248 0.2608 1.1414c0.2293 0.52897 0.6638 1.1461 1.3548 1.6777 1.3823 1.0632 3.6537 1.8053 7.6334 1.8053 3.9798 0 6.2512-0.74208 7.6334-1.8053 0.6911-0.53162 1.1256-1.1488 1.3548-1.6777s0.2609-1.1414 0.2609-1.1414v-20.232s-0.032-0.61248-0.2609-1.1414c-0.2292-0.52898-0.6637-1.1461-1.3548-1.6777-1.3822-1.0632-3.6536-1.8053-7.6334-1.8053zm22.544 0c-3.9798 0-6.2512 0.74208-7.6334 1.8053-0.6911 0.53161-1.1256 1.1488-1.3548 1.6777-0.2292 0.52896-0.2609 1.1414-0.2609 1.1414v5.7806c0 1.1128 0.6397 1.8633 1.2352 2.3868 0.5955 0.52351 1.2819 0.92735 2.056 1.3244 1.5483 0.79397 3.4571 1.5208 5.3358 2.2434s3.7272 1.4409 4.9971 2.0921c0.6349 0.32559 1.1227 0.64432 1.3491 0.84339 0.057 0.05 0.041 0.0371 0.057 0.0564v5.2951c-0.011 0.0268-0.037 0.10747-0.2631 0.28113-0.4968 0.38198-1.9826 1.085-5.5177 1.085s-5.0211-0.70308-5.5175-1.085c-0.2376-0.18268-0.2686-0.27582-0.2767-0.29581a1.7344 1.7344 0 0 0-3.4548 0.22467s0.032 0.61248 0.2608 1.1414c0.2292 0.52897 0.6638 1.1461 1.3548 1.6777 1.3822 1.0632 3.6537 1.8053 7.6334 1.8053s6.2512-0.74208 7.6334-1.8053c0.691-0.53162 1.1255-1.1488 1.3548-1.6777s0.2608-1.1414 0.2608-1.1414v-5.7806c0-1.1128-0.6397-1.8632-1.2351-2.3868-0.5956-0.52351-1.2819-0.92736-2.056-1.3244-1.5483-0.79398-3.4571-1.5208-5.3358-2.2434-1.8787-0.72259-3.7273-1.4409-4.9971-2.0921-0.6349-0.32558-1.1227-0.64432-1.3491-0.84339-0.058-0.05-0.041-0.0371-0.057-0.0564v-5.2951c0.011-0.0268 0.037-0.10747 0.2631-0.28113 0.4968-0.38198 1.9826-1.085 5.5177-1.085s5.0211 0.70308 5.5176 1.085c0.2374 0.18267 0.2685 0.27581 0.2765 0.29581a1.7344 1.7344 0 0 0 3.4549-0.22468s-0.032-0.61248-0.2608-1.1414c-0.2293-0.52898-0.6638-1.1461-1.3548-1.6777-1.3822-1.0632-3.6537-1.8053-7.6334-1.8053zm-37.6 0.55322a1.7344 1.7344 0 0 0-1.7082 1.759v23.015c-0.2878 0.28077-0.7442 0.68532-1.1561 0.68532h-5.7806c-0.5781 0-1.4474-0.96193-1.4474-0.96193a1.7344 1.7344 0 1 0-2.8858 1.9239s1.4429 2.5064 4.3332 2.5064h5.7806c2.8903 0 4.3332-2.5064 4.3332-2.5064a1.7344 1.7344 0 0 0 0.2913-0.96193v-23.701a1.7344 1.7344 0 0 0-1.7602-1.759zm69.92 0.026a1.7344 1.7344 0 0 0-1.4498 0.86597l-7.1693 12.427-7.1693-12.427a1.7344 1.7344 0 0 0-3.2358 0.8671v24.857a1.7344 1.7344 0 1 0 3.4684 0v-18.381l5.4351 9.4206a1.7344 1.7344 0 0 0 3.0033 0l5.4351-9.4206v18.381a1.7344 1.7344 0 1 0 3.4684 0v-24.857a1.7344 1.7344 0 0 0-1.7861-1.7331zm-54.864 2.8892c3.5351 0 5.0211 0.70308 5.5176 1.085 0.2258 0.17367 0.2518 0.25429 0.2631 0.28114v19.812c-0.011 0.0268-0.037 0.10747-0.2631 0.28113-0.4965 0.38192-1.9825 1.085-5.5176 1.085s-5.021-0.70307-5.5176-1.085c-0.2257-0.17366-0.2518-0.25429-0.263-0.28113v-19.812c0.011-0.0268 0.037-0.10747 0.263-0.28114 0.4966-0.38191 1.9825-1.085 5.5176-1.085z" color="#000000" color-rendering="auto" display="inline" dominant-baseline="auto" fill="url(#linearGradient1085)" image-rendering="auto" shape-rendering="auto" solid-color="#000000" stroke="#000" stroke-opacity=".13433" stroke-width=".5" style="font-feature-settings:normal;font-variant-alternates:normal;font-variant-caps:normal;font-variant-ligatures:normal;font-variant-numeric:normal;font-variant-position:normal;isolation:auto;mix-blend-mode:normal;shape-padding:0;text-decoration-color:#000000;text-decoration-line:none;text-decoration-style:solid;text-indent:0;text-orientation:mixed;text-transform:none;white-space:normal"/>
  </g>
 </g>
 <g display="none">
  <g id="g8930" clip-path="url(#clipPath1210)">
   <path d="m80 140v800h800v-800h-533.33z" display="inline" fill="url(#linearGradient9261)"/>
   <path d="m531.5 222.5 15 92 35 55.5 70 68 12.5 59.5 38 206.5 49 69 58.257-28.161s-2.1864-22.553-4.9461-33.497c-3.0728-12.186-6.5571-24.564-12.837-35.45-6.7681-11.733-19.666-19.213-26.147-31.107-8.2251-15.095-7.3774-33.969-15.183-49.285-6.7183-13.182-20.046-22.257-26.644-35.5-9.1263-18.319-13.796-38.786-17-59-4.6213-29.153 5.0205-60.094-3-88.5-8.4371-29.882-24.655-58.45-46-81-19.069-20.145-50.438-25.333-70-45-11.836-11.9-20.345-27.092-27-42.5-11.185-25.894-20.895-82-20.895-82l-12.105-4.0005zm-191.75 616.43s63.309 0.96432 94.581 5.3432c23.45 3.2836 46.793 8.2605 69.296 15.627 18.808 6.1569 34.679 22.427 54.426 23.716 16.721 1.0915 35.08-3.6281 48.304-13.919 11.784-9.1705 18.18-24.415 22.596-38.679 4.4046-14.228 5.7993-29.902 3.201-44.569-4.0062-22.613-28.243-62.841-28.243-62.841l107.44 79.811-16 127.22-41.559 11.355-93.244 1-218.56-23.598z" fill="#fff3aa"/>
   <path d="m550.71 133.99-61.414 0.70711c-10 20-29.293 64.072-29.293 105.3 0 110 43.061 102.8 70 170 26.924 67.167 25.747 148.73 40 220 10 50 26.769 121.42 70 145 12.415 6.772 40 65 40 95 0 31.181-14.254 51.281-32.71 74l235.71-2 3-83c-10-80-136-189-170.28-233.28-48.427-62.554-31.486-96.719-45.719-170.72-16.322-84.86-90.308-90.354-110-155-33.636-110.42-9.2929-126.01-9.2929-166.01zm-187.79 696.02c-47.495-5.0249-87.293 15.056-126.93 33.75-22.567 10.642-36.972-11.182-77.421 79.236l408.48 1c-25.217-26.943-59.673-69.761-113.61-77.117-44.093-6.0127-19.929-29.401-90.515-36.868z" fill="#316ed9"/>
   <path d="m410.16 136.5c-10 20-34.115 55.17-59.539 71.06-24.626 15.391-90.258 24.027-128.91 19.938-45.235-4.7851-54.207-16.326-147.71-2.5097l3-88.988z" fill="#009d00"/>
  </g>
 </g>
 <g display="none">
  <g id="g5199" clip-path="url(#clipPath5203)">
   <rect transform="rotate(-5.9986)" x="-125.68" y="332" width="266.73" height="297.25" fill="#8c133f" style="paint-order:normal"/>
   <rect transform="rotate(-5.9986)" x="211.04" y="436.22" width="108.51" height="193.02" ry="0" display="inline" fill="#33757c" style="paint-order:normal"/>
   <path d="m-23.249 725.65 457.48-48.083" display="inline" fill="none" stroke="#234868" stroke-opacity=".87879" stroke-width="50"/>
   <path d="m19.638 942.35 165.96-238.66" display="inline" fill="none" stroke="#234868" stroke-opacity=".87879" stroke-width="40"/>
   <path d="m220.71 694.29c5.1944 19.388-6.3115 39.315-25.699 44.51-19.388 5.1944-39.315-6.3116-44.51-25.699-5.1944-19.388 6.3115-39.315 25.699-44.51 19.388-5.1944 39.315 6.3115 44.51 25.699z" display="inline" fill="#fff" stroke="#0d4474" stroke-linecap="round" stroke-linejoin="round" stroke-opacity=".87879" stroke-width="8" style="paint-order:stroke fill markers"/>
   <path d="m469.34 668.16c5.1944 19.388-6.3116 39.315-25.699 44.51-19.388 5.1944-39.315-6.3116-44.51-25.699-5.1944-19.388 6.3116-39.315 25.699-44.51 19.388-5.1944 39.315 6.3116 44.51 25.699z" display="inline" fill="#fff" stroke="#0d4474" stroke-linecap="round" stroke-linejoin="round" stroke-opacity=".87879" stroke-width="8" style="paint-order:stroke fill markers"/>
  </g>
 </g>
 <g display="none">
  <g id="g8961" transform="matrix(1.0501 0 0 1.0501 -44.07 -27.074)">
   <use width="100%" height="100%" display="inline" xlink:href="#g8930"/>
   <use width="100%" height="100%" display="inline" xlink:href="#g5199"/>
  </g>
 </g>
 <g>
  <path transform="matrix(1.1752 0 0 1.1752 -3.5969 -179.75)" d="m42.5 875 157 82.5 339.5-49.5 167.42 58.282-159.72-193.81-349.3 31.287z" filter="url(#filter3987)"/>
 </g>
 <g>
  <use transform="matrix(.93735 .46871 0 .98421 13.567 -378.78)" width="100%" height="100%" clip-path="url(#clipPath9132)" xlink:href="#g8961"/>
  <use transform="matrix(.93735 .46968 0 .98421 -5.5112 -103.04)" width="100%" height="100%" clip-path="url(#clipPath9126)" xlink:href="#g8961"/>
  <use transform="matrix(.98421 -.18753 0 .98421 -18.576 61.421)" width="100%" height="100%" clip-path="url(#clipPath9081)" xlink:href="#g8961"/>
 </g>
 <g>
  <path transform="matrix(.98421 0 0 .98421 .50408 .023626)" d="m31.074 33.33-0.32002 842.49 201.21 100.42v-843.52zm620.77 20.744v843.93l202.14 98.428-1.3149-843.29z" clip-path="url(#clipPath9114)" fill="#fff" fill-opacity=".40909"/>
 </g>
 <g>
  <path transform="matrix(1.0219 .16971 -.15751 1.02 2.6685 -114.58)" d="m572.1 580.75-95.569 102.6 204.98-117.81 25.757-36.294 161.97-75.173-34.804-178.53-170.78 127.79z" fill="url(#linearGradient3892)" filter="url(#filter4005)"/>
  <path d="m382.15 663.32 195.91-58.147-3.4364-48.982z" fill="url(#linearGradient4017)"/>
 </g>
 <g>
  <use transform="matrix(.69887 -.76199 .76199 .69887 -433.6 1430.4)" width="100%" height="100%" xlink:href="#g3773"/>
 </g>
</svg>
