<?xml version="1.0" encoding="UTF-8" standalone="yes"?>
<svg version="1.1" width="64" height="64" color-interpolation="linearRGB"
     xmlns:svg="http://www.w3.org/2000/svg" xmlns="http://www.w3.org/2000/svg">
 <g>
  <path style="fill:none; stroke:#000000; stroke-opacity:0.4; stroke-width:4; stroke-linejoin:round"
        d="M18 20L2 35C2 37 4 40 6 40L22 24L18 20z
           M26 24C26 24 30 22 31 23C32 24 30 28 30 28L32 30C35 30 40 25 40 22L38 20C38 20 34 22 33 21C32 20 34 16 34 16L24 6C22 4 19 2 17 2C15 2 12 3 12 4C16 4 21 8 21 12C21 14 18 16 18 16L26 24z"
        transform="matrix(1.333,0,0,1.333,6.678,6.6887)"
  />
  <path style="fill:none; stroke:#bf5000; stroke-width:4"
        d="M18 20L2 35C2 37 4 40 6 40L22 24L18 20z"
        transform="matrix(1.333,0,0,1.333,4.0118,4.0225)"
  />
  <linearGradient id="gradient0" gradientUnits="userSpaceOnUse" x1="128" y1="20" x2="128" y2="40">
   <stop offset="0" stop-color="#ffea80"/>
   <stop offset="1" stop-color="#ffbb00"/>
  </linearGradient>
  <path style="fill:url(#gradient0)"
        d="M18 20L2 35C2 37 4 40 6 40L22 24L18 20z"
        transform="matrix(1.333,0,0,1.333,4.0118,4.0225)"
  />
  <path style="fill:none; stroke:#000000; stroke-width:4; stroke-linecap:round; stroke-linejoin:round"
        d="M26 24C26 24 30 22 31 23C32 24 30 28 30 28L32 30C35 30 40 25 40 22L38 20C38 20 34 22 33 21C32 20 34 16 34 16L24 6C22 4 19 2 17 2C15 2 12 3 12 4C16 4 21 8 21 12C21 14 18 16 18 16L26 24z"
        transform="matrix(1.333,0,0,1.333,4.0118,4.0225)"
  />
  <linearGradient id="gradient1" gradientUnits="userSpaceOnUse" x1="125.71" y1="0.05" x2="125.71" y2="29.28">
   <stop offset="0" stop-color="#808080"/>
   <stop offset="1" stop-color="#292929"/>
  </linearGradient>
  <path style="fill:url(#gradient1)"
        d="M26 24C26 24 30 22 31 23C32 24 30 28 30 28L32 30C35 30 40 25 40 22L38 20C38 20 34 22 33 21C32 20 34 16 34 16L24 6C22 4 19 2 17 2C15 2 12 3 12 4C16 4 21 8 21 12C21 14 18 16 18 16L26 24z"
        transform="matrix(1.333,0,0,1.333,4.0118,4.0225)"
  />
  <path style="fill:#ffffff; fill-opacity:0.2745"
        d="M39 23C38 23 32 29 32 30C35 30 40 25 40 22L38 20C38 20 34 22 33 21C32 20 34 16 34 16L24 6C22 4 19 2 17 2C15 2 12 3 12 4C14 2 18 3 20 4C22 5 25 8 26 10L21 15C18 18 20 20 23 17L28 12L33 17C32 18 32 20 33 21C34 22 36 22 37 21L39 23z"
        transform="matrix(1.333,0,0,1.333,4.0118,4.0225)"
  />
 </g>
</svg>
