<?xml version="1.0" encoding="UTF-8" standalone="no"?>
<!-- Created with Inkscape (http://www.inkscape.org/) -->

<svg
   version="1.1"
   id="svg2"
   width="772.87909"
   height="772.87909"
   viewBox="0 0 772.87908 772.87909"
   xmlns:xlink="http://www.w3.org/1999/xlink"
   xmlns="http://www.w3.org/2000/svg"
   xmlns:svg="http://www.w3.org/2000/svg">
  <defs
     id="defs6">
    <linearGradient
       id="linearGradient4956">
      <stop
         style="stop-color:#bd4e0e;stop-opacity:1"
         offset="0"
         id="stop4952" />
      <stop
         style="stop-color:#ffc581;stop-opacity:1"
         offset="1"
         id="stop4954" />
    </linearGradient>
    <linearGradient
       xlink:href="#linearGradient4956"
       id="linearGradient2208"
       x1="555.36969"
       y1="163.53786"
       x2="585.05823"
       y2="494.20447"
       gradientUnits="userSpaceOnUse"
       gradientTransform="translate(-230.33902,22.85807)" />
    <linearGradient
       xlink:href="#linearGradient4956"
       id="linearGradient3362"
       x1="852.64697"
       y1="616.0722"
       x2="347.95038"
       y2="268.87106"
       gradientUnits="userSpaceOnUse"
       gradientTransform="translate(-230.33902,22.85807)" />
    <linearGradient
       xlink:href="#linearGradient4956"
       id="linearGradient3972"
       x1="246.05283"
       y1="223.53773"
       x2="355.70154"
       y2="335.48734"
       gradientUnits="userSpaceOnUse"
       gradientTransform="translate(-230.33902,22.85807)" />
    <linearGradient
       xlink:href="#linearGradient4956"
       id="linearGradient5092"
       x1="236.87251"
       y1="485.69058"
       x2="317.90009"
       y2="486.9339"
       gradientUnits="userSpaceOnUse" />
    <linearGradient
       xlink:href="#linearGradient4956"
       id="linearGradient5100"
       x1="125.38853"
       y1="365.99554"
       x2="293.36261"
       y2="365.99554"
       gradientUnits="userSpaceOnUse" />
    <linearGradient
       xlink:href="#linearGradient4956"
       id="linearGradient5830"
       gradientUnits="userSpaceOnUse"
       gradientTransform="translate(-230.33902,22.85807)"
       x1="554.1264"
       y1="376.14471"
       x2="586.30151"
       y2="587.45312" />
    <linearGradient
       xlink:href="#linearGradient4956"
       id="linearGradient5832"
       gradientUnits="userSpaceOnUse"
       gradientTransform="translate(-230.33902,22.85807)"
       x1="543.60211"
       y1="570.42908"
       x2="578.84167"
       y2="686.91833" />
    <linearGradient
       xlink:href="#linearGradient4956"
       id="linearGradient843"
       gradientUnits="userSpaceOnUse"
       gradientTransform="translate(-230.33902,22.85807)"
       x1="555.36969"
       y1="163.53786"
       x2="585.05823"
       y2="494.20447" />
  </defs>
  <g
     id="g8"
     transform="translate(86.892578,20.603516)">
    <path
       id="path6128"
       style="opacity:0.65669;fill:#000000;fill-opacity:1;stroke:none;stroke-width:45;stroke-linejoin:round;stroke-miterlimit:4;stroke-dasharray:none"
       d="m 427.7495,370.20222 -41.18658,1.87348 -41.18658,1.87347 -0.89101,0.29914 -0.65868,0.2211 0.0963,-0.48425 -8.35465,1.46089 -8.35409,1.45999 -10.08737,2.7463 -10.08683,2.74539 -8.49192,3.13515 -8.49192,3.13514 -7.23181,3.376 -7.23128,3.3751 -8.31214,4.84794 -8.31267,4.84885 -5.75294,4.04761 -5.75348,4.04853 -6.66425,5.79478 -6.66188,5.79397 -5.97548,6.15606 -5.97496,6.15512 -10.20653,17.001 -10.20653,17.00102 -2.16818,7.36126 -2.16689,7.36229 -1.27504,6.47697 -1.27319,6.47709 -0.37226,9.44122 -0.37411,9.44111 1.04995,7.60425 1.04753,7.60505 1.3067,5.31504 1.30484,5.31493 2.56156,6.80085 2.56284,6.80189 3.17637,5.99162 3.17582,5.99252 4.74753,6.8435 4.74701,6.8444 5.304,5.89926 5.30456,5.89833 8.66783,7.32697 8.66839,7.32605 8.68293,5.42359 8.6811,5.42349 -9.43654,16.53125 -9.43657,16.53124 -8.64816,29.41691 -8.65002,29.4168 0.60093,-0.50647 0.60091,-0.50648 0.34388,-0.35247 -0.26627,0.44271 -0.48151,0.80055 37.63689,-7.5241 37.63875,-7.52396 23.41728,-22.36594 23.41671,-22.36502 2.30407,-3.85614 2.30461,-3.85709 -9.0524,-0.67788 -1.57831,-0.11858 6.16539,0.39285 12.70673,0.80901 7.04927,-0.21225 7.05112,-0.21213 9.71751,-0.96822 9.71751,-0.96822 10.4025,-2.05937 10.25145,-2.03075 -2.50468,0.79243 6.62412,-1.25014 6.62411,-1.25015 32.25724,-5.89902 32.25667,-5.8981 8.46179,-2.13798 8.46307,-2.13693 10.28058,-3.53472 10.28058,-3.53471 9.86294,-4.69953 9.86352,-4.70045 7.12097,-4.17053 7.11854,-4.16972 8.19407,-6.04047 8.19353,-6.03952 7.45986,-6.96503 7.46174,-6.96492 5.23733,-5.87584 5.23787,-5.87676 8.07374,-13.54097 8.07373,-13.54096 2.5808,-8.00913 2.5821,-8.0081 1.1731,-7.44525 1.17438,-7.44422 0.13285,-7.83869 0.13284,-7.83867 -1.6621,-9.26242 -1.66081,-9.26138 -2.96055,-7.91084 -2.96242,-7.91094 -4.47649,-7.69777 -4.47884,-7.69697 -5.24645,-6.42721 -5.24699,-6.42628 -7.54366,-7.19061 -7.54237,-7.18958 -4.15158,-2.61916 -4.15395,-2.61834 -41.09926,2.66266 -41.09928,2.66265 -1.9915,0.19018 -1.9939,0.19098 2.55424,2.10949 -2.25618,-1.7819 -1.33526,2.21997 -1.33525,2.21998 5.91533,5.90305 5.91475,5.90399 4.48316,5.84656 4.48555,5.84576 3.67914,6.44921 3.67968,6.44828 3.05339,8.36988 3.05467,8.37091 1.38016,7.60821 1.3796,7.60913 -0.009,7.52017 -0.008,7.51903 -1.14919,7.44681 -1.14917,7.44677 -2.35243,7.69619 -2.35427,7.69609 -8.07374,13.54096 -8.07374,13.54097 -4.93445,5.24198 -4.93446,5.24199 -5.31711,4.88983 -5.31712,4.88981 -7.40024,5.41034 -7.40026,5.41033 -5.03186,2.94728 -5.03131,2.94637 -9.81595,4.67858 -9.8141,4.67872 -2.71107,0.8653 -12.36235,-1.19404 -12.40469,-1.19674 -5.71571,-1.11505 -5.71514,-1.11599 -5.46074,-1.33242 -5.45833,-1.33322 -15.34664,2.40103 15.50343,-2.45514 3.82988,-6.36184 3.82988,-6.36186 7.82649,-11.60747 7.82593,-11.60656 14.68191,-1.98868 14.68376,-1.98857 0.82605,-1.34169 0.82661,-1.34261 -1.42455,0.19784 0.18862,-0.36436 0.19565,-0.37921 -35.01848,-11.69307 -35.0179,-11.69401 -2.33906,-0.74789 -2.33668,-0.74871 -40.24004,4.84439 -19.16727,2.30804 -0.0901,-0.31421 -0.12031,-0.41965 -3.1802,-8.03508 -3.18021,-8.03509 -1.44904,-6.30509 -1.44666,-6.30587 -0.58739,-6.70478 -0.5887,-6.70582 0.98703,-9.29064 0.98833,-9.28961 2.17287,-7.05441 2.17232,-7.0535 6.62746,-11.01871 6.62692,-11.0178 6.20162,-6.79578 6.20109,-6.79488 5.39652,-4.71995 5.3971,-4.72089 5.99804,-4.3566 6.00016,-4.35732 7.94546,-4.64829 7.9473,-4.64817 7.49156,-3.51546 7.49398,-3.51629 11.66273,-4.0466 11.66329,-4.04751 8.85017,-1.99235 8.85071,-1.99328 -1.08642,-0.0687 -0.76067,-0.0479 3.00618,-0.13558 1.23097,-2.04661 1.23042,-2.04567 -0.47304,-0.0303 z m -33.40061,5.58805 -11.90378,0.55104 -40.00678,1.85056 0.30189,-0.0602 0.37977,-0.0753 0.26,-1.31577 -0.10781,1.11674 0.90843,0.0755 0.90782,0.0766 40.57218,-1.82767 z m 113.14696,43.93634 1.37068,1.13115 5.70681,6.23069 5.4836,5.98838 -6.95866,-7.39733 z m -215.345,114.61813 -4.18141,0.50364 36.63019,13.33878 -35.66171,-12.94996 -0.59078,-0.0379 -0.57972,-0.0372 0.19256,-0.3392 z m -60.69684,10.2911 3.86271,5.88337 -3.75963,-5.6162 z m 154.44056,14.05464 -23.56792,3.27467 -1.14799,1.25396 -0.75216,0.82151 0.56249,-0.93521 0.82213,-1.36685 0.53494,0.1943 19.91806,-2.74263 z m -34.15618,3.52316 4.20453,1.14544 4.08831,1.11308 -5.7e-4,9.4e-4 -4.14734,-1.12933 z m -107.79359,1.19354 4.19202,4.66209 1.06462,1.18239 -4.33944,-4.47422 z m 46.98609,10.73709 -11.01664,19.4348 -0.12499,-0.0751 0.16015,0.0103 z m -35.99363,1.02289 3.79013,3.33448 2.43449,2.14012 -3.45099,-2.61441 z m 13.87829,11.27469 3.15068,2.09031 4.40405,2.92081 -0.48591,-0.29174 -4.03045,-2.41693 z m 151.76679,19.27221 -8.88961,2.83661 -0.0526,0.008 z m -82.13698,-4.45102 -27.72854,4.33811 0.65718,0.46462 0.52106,0.36679 -2.55654,-0.65648 24.69873,-3.82951 z m 0.71916,10.99222 11.10647,0.76184 11.64404,0.79924 -11.04031,-0.7193 -11.03977,-0.7202 z m 102.35552,18.89152 -0.19885,0.0858 -12.45934,3.94096 1.42544,-0.45368 z m -166.84893,34.21493 -0.0427,0.071 -7.36957,7.52356 z" />
    <path
       id="path4125"
       style="fill:#808080;fill-opacity:1;stroke:#000000;stroke-width:50;stroke-linejoin:round;stroke-miterlimit:4;stroke-dasharray:none"
       d="m 167.02539,4.3964844 -40.93164,9.2109376 -40.931641,9.210937 -0.726562,0.726563 -0.53711,0.537109 -0.199218,-1 -7.638672,4.072266 -7.638672,4.070312 -8.619141,6.919922 -8.61914,6.917969 -6.75,7.503906 -6.75,7.503906 -5.314453,7.830079 -5.314453,7.828125 -5.513672,10.972656 -5.513672,10.974609 -3.390625,9.005859 -3.390625,9.00781 -3.248047,12.6875 -3.246094,12.68555 -2.322265,13.33398 -2.322266,13.33204 0.01953,36 0.01953,36 2.308594,15.29296 2.310547,15.29493 2.677734,13.37304 2.679688,13.37305 5.421875,19.29883 5.419922,19.29883 5.746094,15.36718 5.74414,15.36914 4.601563,10.66602 4.599609,10.66602 6.796875,13.53125 6.798828,13.5332 6.927735,11.80078 6.927734,11.80273 9.056641,13.33204 9.05664,13.33398 9.044922,11.33398 9.044917,11.33204 13.35938,13.80468 13.35938,13.80274 12.20507,9.92187 12.20313,9.92188 0.51758,34.9414 0.51757,34.94141 9.24219,61.11133 9.24024,61.11133 0.30273,-1.11133 0.30274,-1.11133 0.13476,-0.76367 v 0.9375 1.69531 l 33.83203,-20.26758 33.83399,-20.26758 10.18164,-48.66796 10.18164,-48.66602 -0.0156,-8.16406 -0.0156,-8.16602 -9.66602,-0.19726 -1.68554,-0.0352 6.54101,-0.006 13.48047,-0.0137 7.07227,-1.35547 7.07422,-1.35547 9.33398,-3.24609 9.33398,-3.2461 9.36329,-5.56054 9.22656,-5.48242 -2.07227,1.94335 6,-3.41601 6,-3.41602 29.33399,-16.25 29.33398,-16.24804 7.33203,-5.4668 7.33399,-5.46484 8.33203,-8.55274 8.33203,-8.55273 7.18945,-10.87305 7.18946,-10.875 4.71289,-9.43555 4.71093,-9.43359 4.66016,-13.38867 4.66016,-13.38672 3.34179,-15.17774 3.34375,-15.17773 1.74024,-12.66602 1.74023,-12.66796 -0.0723,-28.66602 -0.0723,-28.66602 -2.28516,-16.66796 -2.2832,-16.66602 -3.37695,-15.33398 -3.375,-15.33204 -4.68164,-16 -4.68164,-16 -7.39063,-18.66796 -7.38867,-18.66602 -7.88672,-15.74219 -7.88867,-15.74219 -9.30469,-15.10937 -9.30664,-15.10742 -9.31055,-12.417971 -9.31054,-12.416015 -12.12696,-13.673828 -12.125,-13.671875 -5.85156,-4.796875 -5.85351,-4.794922 -40.35743,10.808594 -40.35742,10.808593 -1.91797,0.648438 -1.91992,0.65039 3.90625,3.966797 -3.40039,-3.33789 v 4.701172 4.701171 l 9.67188,11.261719 9.67187,11.263672 8.17383,11.33398 8.17578,11.33204 7.72266,12.66796 7.72265,12.66602 8.26367,16.66602 8.26563,16.66796 6.08594,15.33204 6.08593,15.33398 4.61329,15.33398 4.61328,15.33204 3.40234,15.33398 3.40235,15.33398 2.32617,16 2.32422,16 0.0723,28.66602 0.0723,28.66602 -1.82032,11.33398 -1.82031,11.33398 -2.42773,10.66602 -2.42774,10.66602 -4.23632,12 -4.23633,12 -3.33008,6.66796 -3.33008,6.66602 -7.1543,10.82422 -7.15234,10.82422 -2.23828,2.11914 -13.36524,-0.81641 -13.41015,-0.8164 -6.52539,-1.52539 -6.52539,-1.52735 -6.39844,-2.00195 -6.39648,-2.00391 -14.20508,6.9043 14.33203,-7.03516 0.004,-13.47265 0.004,-13.47266 0.86328,-24.69141 0.86328,-24.68945 13.7793,-5.97656 13.78125,-5.97656 0.0195,-2.84375 0.0195,-2.84571 -1.33398,0.58985 -0.0312,-0.76758 -0.0332,-0.79883 -42.9668,-19.25781 -42.9668,-19.25977 -2.84961,-1.21875 -2.84765,-1.2207 -38.13868,15.14453 -18.16601,7.21484 -0.28516,-0.6289 -0.38086,-0.83985 -8.1875,-15.96679 -8.1875,-15.9668 -5.35547,-12.66602 -5.35351,-12.66796 -4.72071,-13.59375 -4.72265,-13.59571 -4.70118,-19.07226 -4.699214,-19.07032 -2.115234,-14.66796 -2.115235,-14.66602 v -23.33398 -23.33204 l 2.160157,-14.66796 2.160156,-14.66602 2.61328,-10.33008 2.61328,-10.33203 3.45117,-9.667968 3.4529,-9.669712 5.26172,-10.517578 5.26367,-10.517578 5.49414,-8.148438 5.4961,-8.15039 9.42968,-9.777344 9.42969,-9.779297 7.81836,-5.220703 7.81836,-5.222656 -1.15234,0.002 -0.80664,0.002 2.98828,-0.669922 V 8.7285156 4.3964844 h -0.50196 z m -30.69336,15.7656246 -11.82422,2.681641 -39.740232,9.009766 0.271484,-0.16211 0.341797,-0.203125 -0.542968,-2.716797 0.576171,2.291016 0.97461,0.03516 0.974609,0.03711 40.332029,-9.03711 z m 142.61133,74.773438 2.0957,2.126953 9.66016,11.95703 9.2832,11.49219 -11.65625,-14.17188 z m -149.5918,261.886723 -3.96289,1.57421 45.625,22.40235 -44.39648,-21.73633 h -0.62696 -0.61523 l -0.0117,-0.7168 z M 73.658203,385.75 l 7.5625,11.49023 -7.292969,-10.95898 z m 166.439457,8.44141 -22.06836,9.76171 -0.40235,2.70704 -0.26367,1.77343 v -1.98047 -2.89453 l 0.66602,0.32618 18.66601,-8.19922 z m -32.73438,11.65429 5,1.78516 4.86133,1.73437 v 0.002 l -4.93164,-1.75977 z m -109.406249,16.54297 7.148439,8.95703 1.81445,2.27149 -7.183592,-8.55469 z m 54.607419,15.74219 0.6875,41.06836 -0.17382,-0.13672 h 0.16992 z m -36.14843,6.79687 5.92187,6.30274 3.80274,4.04492 -5.13282,-4.87891 z m 21.10937,21.17188 4.50391,3.84961 6.29492,5.3789 -0.67578,-0.53124 -5.60352,-4.4004 z m 166.91406,19.42969 -7.33984,6.94726 -0.0488,0.0234 z m -86.66015,1.67578 -25.66602,12.47461 0.95703,0.86133 0.75781,0.67968 -3.01562,-1.0039 22.88281,-11.04102 z m 7.49023,22.31836 11.81641,0.0996 12.38867,0.10547 -11.72266,-0.0215 -11.72265,-0.0234 z m 116.19336,25.12109 -0.15039,0.20117 -10.30859,9.66602 1.17773,-1.11133 z m -149.45312,91.60156 v 0.15039 l -2.90625,16.30469 z" />
    <path
       id="path7930"
       style="fill:#ffb380;fill-opacity:1;stroke:none;stroke-width:50;stroke-linejoin:round;stroke-miterlimit:4;stroke-dasharray:none"
       d="m 167.02539,4.3964844 -40.93164,9.2109376 -40.931641,9.210937 -0.726562,0.726563 -0.53711,0.537109 -0.199218,-1 -7.638672,4.072266 -7.638672,4.070312 -8.619141,6.919922 -8.61914,6.917969 -6.75,7.503906 -6.75,7.503906 -5.314453,7.830079 -5.314453,7.828125 -5.513672,10.972656 -5.513672,10.974609 -3.390625,9.005859 -3.390625,9.00781 -3.248047,12.6875 -3.246094,12.68555 -2.322265,13.33398 -2.322266,13.33204 0.01953,36 0.01953,36 2.308594,15.29296 2.310547,15.29493 2.677734,13.37304 2.679688,13.37305 5.421875,19.29883 5.419922,19.29883 5.746094,15.36718 5.74414,15.36914 4.601563,10.66602 4.599609,10.66602 6.796875,13.53125 6.798828,13.5332 6.927735,11.80078 6.927734,11.80273 9.056641,13.33204 9.05664,13.33398 9.044922,11.33398 9.044917,11.33204 13.35938,13.80468 13.35938,13.80274 12.20507,9.92187 12.20313,9.92188 0.51758,34.9414 0.51757,34.94141 9.24219,61.11133 9.24024,61.11133 0.30273,-1.11133 0.30274,-1.11133 0.13476,-0.76367 v 0.9375 1.69531 l 33.83203,-20.26758 33.83399,-20.26758 10.18164,-48.66796 10.18164,-48.66602 -0.0156,-8.16406 -0.0156,-8.16602 -9.66602,-0.19726 -1.68554,-0.0352 6.54101,-0.006 13.48047,-0.0137 7.07227,-1.35547 7.07422,-1.35547 9.33398,-3.24609 9.33398,-3.2461 9.36329,-5.56054 9.22656,-5.48242 -2.07227,1.94335 6,-3.41601 6,-3.41602 29.33399,-16.25 29.33398,-16.24804 7.33203,-5.4668 7.33399,-5.46484 8.33203,-8.55274 8.33203,-8.55273 7.18945,-10.87305 7.18946,-10.875 4.71289,-9.43555 4.71093,-9.43359 4.66016,-13.38867 4.66016,-13.38672 3.34179,-15.17774 3.34375,-15.17773 1.74024,-12.66602 1.74023,-12.66796 -0.0723,-28.66602 -0.0723,-28.66602 -2.28516,-16.66796 -2.2832,-16.66602 -3.37695,-15.33398 -3.375,-15.33204 -4.68164,-16 -4.68164,-16 -7.39063,-18.66796 -7.38867,-18.66602 -7.88672,-15.74219 -7.88867,-15.74219 -9.30469,-15.10937 -9.30664,-15.10742 -9.31055,-12.417971 -9.31054,-12.416015 -12.12696,-13.673828 -12.125,-13.671875 -5.85156,-4.796875 -5.85351,-4.794922 -40.35743,10.808594 -40.35742,10.808593 -1.91797,0.648438 -1.91992,0.65039 3.90625,3.966797 -3.40039,-3.33789 v 4.701172 4.701171 l 9.67188,11.261719 9.67187,11.263672 8.17383,11.33398 8.17578,11.33204 7.72266,12.66796 7.72265,12.66602 8.26367,16.66602 8.26563,16.66796 6.08594,15.33204 6.08593,15.33398 4.61329,15.33398 4.61328,15.33204 3.40234,15.33398 3.40235,15.33398 2.32617,16 2.32422,16 0.0723,28.66602 0.0723,28.66602 -1.82032,11.33398 -1.82031,11.33398 -2.42773,10.66602 -2.42774,10.66602 -4.23632,12 -4.23633,12 -3.33008,6.66796 -3.33008,6.66602 -7.1543,10.82422 -7.15234,10.82422 -2.23828,2.11914 -13.36524,-0.81641 -13.41015,-0.8164 -6.52539,-1.52539 -6.52539,-1.52735 -6.39844,-2.00195 -6.39648,-2.00391 -14.20508,6.9043 14.33203,-7.03516 0.004,-13.47265 0.004,-13.47266 0.86328,-24.69141 0.86328,-24.68945 13.7793,-5.97656 13.78125,-5.97656 0.0195,-2.84375 0.0195,-2.84571 -1.33398,0.58985 -0.0312,-0.76758 -0.0332,-0.79883 -42.9668,-19.25781 -42.9668,-19.25977 -2.84961,-1.21875 -2.84765,-1.2207 -38.13868,15.14453 -18.16601,7.21484 -0.28516,-0.6289 -0.38086,-0.83985 -8.1875,-15.96679 -8.1875,-15.9668 -5.35547,-12.66602 -5.35351,-12.66796 -4.72071,-13.59375 -4.72265,-13.59571 -4.70118,-19.07226 -4.699214,-19.07032 -2.115234,-14.66796 -2.115235,-14.66602 v -23.33398 -23.33204 l 2.160157,-14.66796 2.160156,-14.66602 2.61328,-10.33008 2.61328,-10.33203 3.45117,-9.667968 3.4529,-9.669712 5.26172,-10.517578 5.26367,-10.517578 5.49414,-8.148438 5.4961,-8.15039 9.42968,-9.777344 9.42969,-9.779297 7.81836,-5.220703 7.81836,-5.222656 -1.15234,0.002 -0.80664,0.002 2.98828,-0.669922 V 8.7285156 4.3964844 h -0.50196 z m -30.69336,15.7656246 -11.82422,2.681641 -39.740232,9.009766 0.271484,-0.16211 0.341797,-0.203125 -0.542968,-2.716797 0.576171,2.291016 0.97461,0.03516 0.974609,0.03711 40.332029,-9.03711 z m 142.61133,74.773438 2.0957,2.126953 9.66016,11.95703 9.2832,11.49219 -11.65625,-14.17188 z m -149.5918,261.886723 -3.96289,1.57421 45.625,22.40235 -44.39648,-21.73633 h -0.62696 -0.61523 l -0.0117,-0.7168 z M 73.658203,385.75 l 7.5625,11.49023 -7.292969,-10.95898 z m 166.439457,8.44141 -22.06836,9.76171 -0.40235,2.70704 -0.26367,1.77343 v -1.98047 -2.89453 l 0.66602,0.32618 18.66601,-8.19922 z m -32.73438,11.65429 5,1.78516 4.86133,1.73437 v 0.002 l -4.93164,-1.75977 z m -109.406249,16.54297 7.148439,8.95703 1.81445,2.27149 -7.183592,-8.55469 z m 54.607419,15.74219 0.6875,41.06836 -0.17382,-0.13672 h 0.16992 z m -36.14843,6.79687 5.92187,6.30274 3.80274,4.04492 -5.13282,-4.87891 z m 21.10937,21.17188 4.50391,3.84961 6.29492,5.3789 -0.67578,-0.53124 -5.60352,-4.4004 z m 166.91406,19.42969 -7.33984,6.94726 -0.0488,0.0234 z m -86.66015,1.67578 -25.66602,12.47461 0.95703,0.86133 0.75781,0.67968 -3.01562,-1.0039 22.88281,-11.04102 z m 7.49023,22.31836 11.81641,0.0996 12.38867,0.10547 -11.72266,-0.0215 -11.72265,-0.0234 z m 116.19336,25.12109 -0.15039,0.20117 -10.30859,9.66602 1.17773,-1.11133 z m -149.45312,91.60156 v 0.15039 l -2.90625,16.30469 z" />
    <path
       style="fill:url(#linearGradient843);fill-opacity:1;stroke:none;stroke-width:1"
       d="m 86.387933,31.098299 -0.9746,-0.03585 -0.85219,-3.395427 -0.8522,-3.395427 0.72667,-0.726676 0.72668,-0.726674 40.931967,-9.211232 40.93198,-9.2112316 h 0.50148 0.50148 l -6e-5,4.333333 -5e-5,4.3333336 -40.33328,9.03585 -40.333277,9.035848 z"
       id="path5809" />
    <path
       style="fill:url(#linearGradient5830);fill-opacity:1;stroke:none;stroke-width:1"
       d="m 213.69586,489.17533 -23,11.09779 v -44.50856 -44.50855 l 3.51315,-2.76344 3.51315,-2.76344 4.82018,0.0585 4.82019,0.0585 4.93096,1.76061 4.93097,1.76063 0.40236,-2.70667 0.40238,-2.70668 38.33333,-16.95752 38.33333,-16.95752 -0.0203,2.84505 -0.0201,2.84504 -13.77976,5.97626 -13.77977,5.97626 -0.86293,24.6904 -0.86295,24.69042 -0.004,13.47279 -0.004,13.47278 -14.33333,7.03476 -14.33334,7.03476 -23,11.09778 z"
       id="path5807" />
    <path
       style="fill:url(#linearGradient2208);fill-opacity:1;stroke:none;stroke-width:1"
       d="m 326.69586,550.76092 -6,3.41584 10.3082,-9.66539 10.30822,-9.66538 6.70338,-8.89176 6.7034,-8.89176 6.53041,-12.66667 6.5304,-12.66667 4.61777,-13.33333 4.61779,-13.33333 2.75833,-12.66667 2.75833,-12.66667 1.37635,-8.66667 1.37636,-8.66666 1.41509,-20.66667 1.41511,-20.66667 -1.34065,-20.92261 -1.34066,-20.9226 -2.10616,-14.41074 -2.10614,-14.41072 -3.39703,-15.33333 -3.39701,-15.33333 -4.53062,-15.76706 -4.5306,-15.76705 -6.78692,-18.23295 -6.78691,-18.23295 -9.08246,-18.90717 -9.08248,-18.90717 -7.68342,-13.09283 -7.6834,-13.09283 -8.95024,-13.37564 -8.95024,-13.37564 -9.6602,-11.9577 -9.6602,-11.957688 -12.09084,-12.278375 -12.09082,-12.278375 1.91893,-0.64967 1.91893,-0.649669 40.35738,-10.808194 40.35736,-10.808193 5.8525,4.795686 5.85251,4.795686 12.12531,13.673052 12.12532,13.673051 9.31144,12.416466 9.31144,12.416463 9.30517,15.10872 9.30518,15.10872 7.88794,15.74232 7.88796,15.74232 7.38918,18.66666 7.38917,18.66667 4.68152,16 4.68153,16 3.3761,15.33334 3.37608,15.33333 2.28404,16.66667 2.28402,16.66666 0.0728,28.66667 0.0728,28.66667 -1.74064,12.66667 -1.74064,12.66666 -3.34285,15.17758 -3.34284,15.17757 -4.65988,13.38751 -4.65989,13.38752 -4.71147,9.43491 -4.71147,9.43492 -7.18957,10.87424 -7.18956,10.87424 -8.33236,8.55226 -8.33235,8.55227 -7.33333,5.46615 -7.33333,5.46614 -29.33334,16.24866 -29.33333,16.24866 -6,3.41583 z"
       id="path5805" />
    <path
       style="fill:url(#linearGradient5832);fill-opacity:1;stroke:none;stroke-width:1"
       d="m 208.52909,706.66347 -33.83323,20.26767 v -1.69473 -1.69474 l 8.65691,-48.57293 8.65689,-48.57294 0.009,-34.47598 0.009,-34.47599 2.33333,1.00791 2.33334,1.00792 14.66666,5.07988 14.66667,5.07989 8.66667,1.35935 8.66666,1.35934 9.66667,0.19756 9.66667,0.19755 0.0155,8.16463 0.0155,8.16461 -10.18224,48.66667 -10.18223,48.66667 -33.83322,20.26766 z"
       id="path1973" />
    <path
       style="fill:url(#linearGradient3362);fill-opacity:1;stroke:none;stroke-width:1"
       d="m 174.2575,726.17371 -0.30246,1.11123 -9.24079,-61.11123 -9.24079,-61.11124 -0.51766,-34.94109 -0.51768,-34.9411 -12.20446,-9.92221 -12.20446,-9.92222 -13.35981,-13.80336 -13.3598,-13.80336 -9.044237,-11.33333 -9.04423,-11.33333 -9.05666,-13.33334 -9.05667,-13.33333 -6.92829,-11.8018 -6.92829,-11.80182 -6.79754,-13.53152 -6.79754,-13.53153 -4.60041,-10.66667 -4.6004,-10.66666 -5.74535,-15.36826 -5.74534,-15.36825 -5.42048,-19.29842 -5.4204799,-19.29841 -2.67941,-13.37352 -2.67941,-13.37351 -2.30952001,-15.29316 -2.30950999,-15.29314 -0.0195,-36.00001 -0.0195,-36 2.32253999,-13.33333 2.32254001,-13.33333 3.24696,-12.6861 3.24695,-12.68609 3.3904799,-9.00767 3.39047,-9.00766 5.5144,-10.972911 5.51439,-10.972911 5.31384,-7.829561 5.31383,-7.82956 6.75043,-7.503773 6.75044,-7.503774 8.61863,-6.918717 8.61863,-6.918718 7.63922,-4.071664 7.63923,-4.071664 0.84067,4.203344 0.84066,4.203344 -0.34259,0.203652 -0.34259,0.203651 -8.85629,6.214873 -8.8563,6.214875 -7.55646,8.350164 -7.55647,8.350165 -4.68292,7.055126 -4.68293,7.055127 -5.24166,10.472518 -5.24166,10.472518 -4.73737,14.461906 -4.73737,14.46191 -2.70932,15.36213 -2.70932,15.36213 -0.70699,24.66667 -0.70699,24.66667 2.15457,18.49224 2.15458,18.49223 3.44795,15.37326 3.44794,15.37328 4.67296,15.46783 4.67297,15.46783 7.35098,18.66666 7.35097,18.66667 11.48041,22.60907 11.48041,22.60908 12.90414,19.39092 12.90415,19.39093 10.635467,12.66667 10.63548,12.66667 10.51861,10 10.51861,10 5.60373,4.4014 5.60375,4.4014 -0.68667,-41.06807 -0.68666,-41.06807 -1.37466,-5.46506 -1.37465,-5.46508 -4.93563,-6.53492 -4.93562,-6.53494 -6.8993,-4.66666 -6.89928,-4.66667 -0.0482,-2.33333 -0.0482,-2.33334 h 0.62719 0.6272 l 45.37281,22.21434 45.3728,22.21434 v 2.96187 2.96188 l -5,-1.78436 -5,-1.78435 -4.82019,-0.0585 -4.82018,-0.0585 -3.51315,2.76344 -3.51315,2.76344 v 44.46119 44.46118 l 8.35046,2.77886 8.35044,2.77885 9.31622,1.97336 9.31622,1.97337 11.72288,0.0232 11.72288,0.0232 10.27712,-2.07357 10.27712,-2.07357 13.53526,-6.55259 13.53528,-6.55257 11.49691,-10.8828 11.49692,-10.88279 7.15285,-10.82439 7.15284,-10.82438 3.33051,-6.66667 3.33049,-6.66667 4.23626,-12 4.23624,-12 2.42833,-10.66667 2.42835,-10.66666 1.81988,-11.33334 1.81988,-11.33333 -0.0719,-28.66667 -0.0719,-28.66667 -2.32596,-16 -2.32596,-16 -3.40202,-15.33333 -3.40203,-15.33333 -4.61296,-15.33334 -4.61296,-15.33333 -6.08649,-15.33334 -6.0865,-15.33333 -8.26461,-16.66667 -8.26461,-16.66666 -7.7224,-12.66667 -7.72239,-12.66667 -8.17516,-11.33333 -8.17516,-11.33334 -9.6718,-11.262988 -9.67192,-11.263068 V 77.835282 73.13403 l 9.47247,9.297575 9.47246,9.297573 12.01763,14.611422 12.01763,14.61143 8.9589,13.38858 8.95892,13.38857 7.6834,13.09283 7.68342,13.09283 9.08248,18.90717 9.08246,18.90717 6.78691,18.23295 6.78692,18.23295 4.5306,15.76705 4.53062,15.76706 3.39701,15.33333 3.39703,15.33333 2.10614,14.41072 2.10616,14.41074 1.34066,20.9226 1.34065,20.92261 -1.41511,20.66667 -1.41509,20.66667 -1.37636,8.66666 -1.37635,8.66667 -2.75833,12.66667 -2.75833,12.66667 -4.61779,13.33333 -4.61777,13.33333 -6.5304,12.66667 -6.53041,12.66667 -6.62798,8.79106 -6.62798,8.79106 -9.28064,8.75488 -9.28064,8.75489 -9.36184,5.56176 -9.36185,5.56178 -9.33457,3.24625 -9.33459,3.24624 -7.07321,1.35507 -7.07323,1.35508 -13.47907,0.0133 -13.47906,0.0133 -9.1876,-1.44373 -9.1876,-1.44375 -14.66667,-5.07989 -14.66667,-5.07988 -2.33333,-1.00792 -2.33333,-1.00791 v 34.34535 34.34533 l -8.73462,49.46399 -8.73461,49.46398 -0.30247,1.11124 z"
       id="path1971" />
    <path
       style="fill:url(#linearGradient5100);fill-opacity:1;stroke:none;stroke-width:1"
       d="m 236.69586,395.68626 -18.66666,8.19899 -46.32034,-22.74473 -46.32033,-22.74472 38.13849,-15.14499 38.13851,-15.145 2.84849,1.22 2.84851,1.22001 42.96735,19.25832 42.96733,19.25832 0.0327,0.79967 0.0327,0.79967 -19,8.41274 -19,8.41275 -18.66666,8.19897 z"
       id="path1969" />
    <path
       style="fill:url(#linearGradient3972);fill-opacity:1;stroke:none;stroke-width:1"
       d="m 152.9723,479.06233 -0.27644,-1.4e-4 -10.66666,-9.11386 -10.66667,-9.11386 -9.0242,-9.60331 -9.0242,-9.60332 -8.20792,-10.28268 -8.207927,-10.2827 -11.62366,-17.66256 -11.62366,-17.66254 -11.34211,-22.33746 -11.34212,-22.33744 -7.35097,-18.66667 -7.35098,-18.66666 -4.67296,-15.46783 -4.67297,-15.46783 -3.44794,-15.37328 -3.44795,-15.37326 -2.15458,-18.49223 -2.15457,-18.49224 0.70699,-24.66667 0.70699,-24.66667 2.70932,-15.36213 2.70932,-15.36213 4.73737,-14.46191 4.73737,-14.461906 5.24166,-10.472518 5.24166,-10.472518 4.68293,-7.055127 4.68292,-7.055126 7.55647,-8.350165 7.55646,-8.350164 8.66805,-6.185388 8.66804,-6.185388 40.188247,-9.111264 40.18825,-9.111264 1.15194,-0.0015 1.15194,-0.0015 -7.81861,5.22143 -7.8186,5.221429 -9.42955,9.778571 -9.42956,9.778571 -5.49522,8.149396 -5.49521,8.149395 -5.26273,10.517272 -5.26273,10.517271 -3.45145,9.66929 -3.45145,9.669293 -2.61343,10.33071 -2.613427,10.3307 -2.16054,14.66668 -2.16055,14.66667 v 23.33333 23.33334 l 2.11503,14.66666 2.11502,14.66667 4.700997,19.07139 4.70099,19.07139 4.72132,13.59528 4.72131,13.59528 5.35442,12.66666 5.35443,12.66667 8.18784,15.96719 8.18782,15.9672 0.37971,0.83857 0.37969,0.83859 -10.04636,3.83568 -10.04637,3.83569 0.0482,2.69187 0.0482,2.69188 6.89928,4.66667 6.89929,4.66666 4.93563,6.53494 4.93563,6.53492 1.37465,5.46508 1.37465,5.46506 0.6853,41 0.68529,41.00001 -0.27644,-1.4e-4 z"
       id="path1967" />
    <path
       style="fill:url(#linearGradient5092);fill-opacity:1;stroke:none;stroke-width:1"
       d="m 237.08541,509.62313 -12.38955,-0.106 -8.51602,-1.84752 -8.51603,-1.84753 -6.81731,-2.21037 -6.8173,-2.21036 -0.958,-0.86078 -0.95802,-0.86078 36.56018,-17.77058 36.56017,-17.77057 6.39783,2.00312 6.39784,2.00311 6.52498,1.52625 6.52498,1.52625 13.41046,0.817 13.41047,0.817 -10.42604,9.83536 -10.42604,9.83536 -13.50941,6.53995 -13.5094,6.53995 -10.27712,2.07357 -10.27712,2.07357 z"
       id="path1965" />
  </g>
</svg>
