<?xml version="1.0" encoding="UTF-8" standalone="no"?>
<!-- Created with Inkscape (http://www.inkscape.org/) -->
<svg id="svg2" xmlns:rdf="http://www.w3.org/1999/02/22-rdf-syntax-ns#" xmlns="http://www.w3.org/2000/svg" sodipodi:docname="gnumeric.svg" xmlns:sodipodi="http://inkscape.sourceforge.net/DTD/sodipodi-0.dtd" sodipodi:version="0.32" height="48" width="48" version="1.0" xmlns:cc="http://web.resource.org/cc/" xmlns:xlink="http://www.w3.org/1999/xlink" sodipodi:docbase="/home/vinicius/tango-icon-theme-code/apps/scalable" xmlns:dc="http://purl.org/dc/elements/1.1/">
 <metadata id="metadata7">
  <rdf:RDF>
   <cc:Work rdf:about="">
    <dc:format>image/svg+xml</dc:format>
    <dc:type rdf:resource="http://purl.org/dc/dcmitype/StillImage"/>
   </cc:Work>
  </rdf:RDF>
 </metadata>
 <defs id="defs5">
  <linearGradient id="linearGradient3390">
   <stop id="stop3392" stop-opacity=".068376" offset="0"/>
   <stop id="stop3394" stop-opacity=".21368" offset="1"/>
  </linearGradient>
  <linearGradient id="linearGradient16147">
   <stop id="stop16149" stop-color="#fff" offset="0"/>
   <stop id="stop16151" stop-color="#fff" stop-opacity="0" offset="1"/>
  </linearGradient>
  <linearGradient id="linearGradient6032" y2="5.987" gradientUnits="userSpaceOnUse" x2="24.497" gradientTransform="matrix(.81222 0 0 1.0537 -.44950 -1.3088)" y1="43.013" x1="24.497">
   <stop id="stop27604" stop-color="#dbdbd5" offset="0"/>
   <stop id="stop27606" stop-color="#f1f1f0" offset="1"/>
  </linearGradient>
  <radialGradient id="radialGradient6034" gradientUnits="userSpaceOnUse" cy="38.891" cx="-74.011" r="13.664">
   <stop id="stop25807" offset="0"/>
   <stop id="stop25809" stop-opacity="0" offset="1"/>
  </radialGradient>
  <linearGradient id="linearGradient6036" y2="17.857" xlink:href="#linearGradient16147" gradientUnits="userSpaceOnUse" x2="-49.994" y1="37.036" x1="-49.994"/>
  <linearGradient id="linearGradient6038" y2="33.543" gradientUnits="userSpaceOnUse" x2="-49.994" y1="20.458" x1="-54.103">
   <stop id="stop9950" stop-color="#ff7171" offset="0"/>
   <stop id="stop9952" stop-color="#dc2525" offset="1"/>
  </linearGradient>
  <linearGradient id="linearGradient6040" y2="48.589" gradientUnits="userSpaceOnUse" x2="-16.605" y1="55.833" x1="-9.2566">
   <stop id="stop18788" stop-color="#3465a4" offset="0"/>
   <stop id="stop18790" stop-color="#729fcf" offset="1"/>
  </linearGradient>
  <linearGradient id="linearGradient6042" y2="56.828" gradientUnits="userSpaceOnUse" x2="-18.5" y1="48.666" x1="-18.08">
   <stop id="stop24049" stop-color="#c4f197" offset="0"/>
   <stop id="stop24051" stop-color="#74d218" offset="1"/>
  </linearGradient>
  <linearGradient id="linearGradient3396" y2="-19.5" xlink:href="#linearGradient3390" gradientUnits="userSpaceOnUse" x2="13" gradientTransform="matrix(1 0 5.5599e-35 .70968 1.6265e-16 -10.161)" y1="-19.5" x1="7"/>
  <linearGradient id="linearGradient3404" y2="-28.55" xlink:href="#linearGradient3390" gradientUnits="userSpaceOnUse" x2="-13" gradientTransform="matrix(1 0 0 .82353 0 -7.2353)" y1="-28.55" x1="-3.9965"/>
  <linearGradient id="linearGradient3408" y2="-28.724" xlink:href="#linearGradient3390" gradientUnits="userSpaceOnUse" x2="13.669" gradientTransform="matrix(1 0 -2.2419e-34 .29032 1.1107e-16 -2.8387)" y1="-27.687" x1="6.997"/>
 </defs>
 <sodipodi:namedview id="base" bordercolor="#666666" pagecolor="#ffffff" borderopacity="1.0" showborder="false" showgrid="false" showguides="true" fill="#888a85"/>
 <rect id="rect5976" stroke-linejoin="round" rx="2.8915" ry="2.8915" height="37.96" width="34.106" stroke="#555753" stroke-linecap="round" y="5.5265" x="2.3943" fill="url(#linearGradient6032)"/>
 <rect id="rect5980" fill-opacity=".56034" transform="rotate(90)" height="1" width="35" y="-35" x="7" fill="#8d8e8b"/>
 <rect id="rect5982" fill-opacity=".56034" transform="rotate(90)" height="1" width="35" y="-24" x="7" fill="#8d8e8b"/>
 <rect id="rect5984" fill-opacity=".56034" transform="rotate(90)" height="1" width="35" y="-13" x="7" fill="#8d8e8b"/>
 <rect id="rect5986" fill-opacity=".56034" transform="rotate(90)" height="1" width="35" y="-5" x="7" fill="#8d8e8b"/>
 <rect id="rect5988" fill-opacity=".56034" height="1" width="31" y="20" x="4" fill="#8d8e8b"/>
 <rect id="rect5990" fill-opacity=".56034" height="1" width="31" y="24" x="4" fill="#8d8e8b"/>
 <rect id="rect5992" fill-opacity=".56034" height="1" width="31" y="28" x="4" fill="#8d8e8b"/>
 <rect id="rect5994" fill-opacity=".56034" height="1" width="31" y="32" x="4" fill="#8d8e8b"/>
 <rect id="rect5996" fill-opacity=".56034" height="1" width="31" y="36" x="4" fill="#8d8e8b"/>
 <rect id="rect5998" fill-opacity=".56034" height="1" width="31" y="41" x="4" fill="#8d8e8b"/>
 <rect id="rect6000" fill-opacity=".56034" height="1" width="31" y="16" x="4" fill="#8d8e8b"/>
 <rect id="rect6002" fill-opacity=".56034" height="1" width="31" y="12" x="4" fill="#8d8e8b"/>
 <rect id="rect6004" fill-opacity=".56034" height="1" width="31" y="7" x="4" fill="#8d8e8b"/>
 <rect id="rect6008" transform="matrix(2.2234e-17 1 -1 1.6007e-17 0 0)" height="22" width="6" y="-35" x="7" fill="url(#linearGradient3396)"/>
 <rect id="rect3406" transform="matrix(9.0957e-18 1 -1 3.9128e-17 0 0)" height="9" width="6" y="-13" x="7" fill="url(#linearGradient3408)"/>
 <rect id="rect6030" transform="scale(-1)" height="28" width="9" y="-41" x="-13" fill="url(#linearGradient3404)"/>
 <rect id="rect5978" stroke-linejoin="round" rx="1.8955" ry="1.8955" height="35.958" width="32.063" stroke="#fff" stroke-linecap="round" y="6.5139" x="3.4051" fill="none"/>
 <g id="g6010" transform="translate(50.079 -18.091)">
  <path id="path6012" sodipodi:rx="13.663586" sodipodi:ry="13.663586" sodipodi:type="arc" d="m-60.348 38.891a13.664 13.664 0 1 1 -27.327 0 13.664 13.664 0 1 1 27.327 0z" transform="matrix(1.2207 0 0 .95833 72.125 15.853)" sodipodi:cy="38.890942" sodipodi:cx="-74.011093" fill="url(#radialGradient6034)"/>
  <path id="path6014" stroke-linejoin="round" d="m-18.549 37.594c-7.745 0.212-13.949 4.834-13.949 10.468v4c0 5.77 6.509 10.438 14.514 10.438 8.0047 0 14.482-4.668 14.482-10.438 0.0004-0.315 0.0004-3.691 0.0004-4 0-5.769-6.4777-10.468-14.482-10.468-0.188 0-0.379-0.005-0.565 0z" sodipodi:nodetypes="cssssssc" stroke="#670000" stroke-linecap="round" fill="#a40000"/>
  <path id="path6016" d="m-15 57v4.799c4.088-0.608 10.02-3.22 11-8.799v-5l-11 9z" fill-rule="evenodd" sodipodi:nodetypes="ccccc" fill="#204a87"/>
  <path id="path6018" d="m-23 57.37v3.967c1.971 0.548 5.427 0.965 8 0.428v-4l-8-0.395z" fill-rule="evenodd" sodipodi:nodetypes="ccccc" fill="#4e9a06"/>
  <path id="path6020" opacity=".25738" stroke-linejoin="round" d="m-37.329 27.447c0 5.029-5.674 9.11-12.665 9.11s-12.665-4.081-12.665-9.11c0-0.241 0.013-2.398 0.038-2.634 0.508-4.695 5.97-6.476 12.627-6.476 6.625 0 12.067 1.746 12.619 6.41 0.03 0.257 0.046 2.436 0.046 2.7z" sodipodi:nodetypes="csssssc" transform="matrix(1.0666 0 0 1.0425 35.332 23.434)" stroke="url(#linearGradient6036)" stroke-linecap="round" stroke-width=".94832" fill="none"/>
  <path id="path6022" sodipodi:rx="12.665184" sodipodi:ry="9.1100445" sodipodi:type="arc" d="m-37.329 27.447a12.665 9.11 0 1 1 -25.33 0 12.665 9.11 0 1 1 25.33 0z" stroke-linejoin="round" stroke-linecap="round" transform="matrix(1.0666 0 0 1.0425 35.332 19.434)" stroke="#ff7171" sodipodi:cy="27.44685" sodipodi:cx="-49.994148" stroke-width=".94832" fill="url(#linearGradient6038)"/>
  <path id="path6024" d="m-18.008 47.526l13.173-2.883c3.1747 6.8-3.6559 12.455-10.153 13.18l-3.02-10.297z" fill-rule="evenodd" sodipodi:nodetypes="cccc" fill="url(#linearGradient6040)"/>
  <path id="path6026" d="m-17.963 47.556l-5.039 9.826c2.621 0.735 5.221 0.781 8.039 0.433l-3-10.259z" fill-rule="evenodd" sodipodi:nodetypes="cccc" fill="url(#linearGradient6042)"/>
  <path id="path6028" sodipodi:rx="12.665184" sodipodi:ry="9.1100445" sodipodi:type="arc" d="m-37.329 27.447a12.665 9.11 0 1 1 -25.33 0 12.665 9.11 0 1 1 25.33 0z" opacity=".51477" stroke-linejoin="round" stroke-linecap="round" transform="matrix(1.0666 0 0 1.0425 35.332 19.434)" stroke="url(#linearGradient6036)" sodipodi:cy="27.44685" sodipodi:cx="-49.994148" stroke-width=".94832" fill="none"/>
 </g>
</svg>
